<?xml version="1.0" standalone="no"?>
<!DOCTYPE svg PUBLIC "-//W3C//DTD SVG 1.1//EN" "http://www.w3.org/Graphics/SVG/1.1/DTD/svg11.dtd" >
<svg xmlns="http://www.w3.org/2000/svg">
<metadata>
Created by FontForge 20120731 at Mon Mar 13 20:25:49 2017
 By admin
</metadata>
<defs>
<font id="iconfont" horiz-adv-x="1024" >
  <font-face 
    font-family="iconfont"
    font-weight="500"
    font-stretch="normal"
    units-per-em="1024"
    panose-1="2 0 6 3 0 0 0 0 0 0"
    ascent="896"
    descent="-128"
    x-height="792"
    bbox="0 -224 1079 896"
    underline-thickness="0"
    underline-position="0"
    unicode-range="U+0078-E769"
  />
<missing-glyph 
 />
    <glyph glyph-name=".notdef" 
 />
    <glyph glyph-name=".notdef" 
 />
    <glyph glyph-name=".null" horiz-adv-x="0" 
 />
    <glyph glyph-name="nonmarkingreturn" horiz-adv-x="341" 
 />
    <glyph glyph-name="x" unicode="x" horiz-adv-x="1001" 
d="M281 543q-27 -1 -53 -1h-83q-18 0 -36.5 -6t-32.5 -18.5t-23 -32t-9 -45.5v-76h912v41q0 16 -0.5 30t-0.5 18q0 13 -5 29t-17 29.5t-31.5 22.5t-49.5 9h-133v-97h-438v97zM955 310v-52q0 -23 0.5 -52t0.5 -58t-10.5 -47.5t-26 -30t-33 -16t-31.5 -4.5q-14 -1 -29.5 -0.5
t-29.5 0.5h-32l-45 128h-439l-44 -128h-29h-34q-20 0 -45 1q-25 0 -41 9.5t-25.5 23t-13.5 29.5t-4 30v167h911zM163 247q-12 0 -21 -8.5t-9 -21.5t9 -21.5t21 -8.5q13 0 22 8.5t9 21.5t-9 21.5t-22 8.5zM316 123q-8 -26 -14 -48q-5 -19 -10.5 -37t-7.5 -25t-3 -15t1 -14.5
t9.5 -10.5t21.5 -4h37h67h81h80h64h36q23 0 34 12t2 38q-5 13 -9.5 30.5t-9.5 34.5q-5 19 -11 39h-368zM336 498v228q0 11 2.5 23t10 21.5t20.5 15.5t34 6h188q31 0 51.5 -14.5t20.5 -52.5v-227h-327z" />
    <glyph glyph-name="zhuye" unicode="&#xe637;" horiz-adv-x="1000" 
d="M827 403v241h-125v-111l-187 194l-439 -454h125v-329h167v164h292v-164h167v329h125z" />
    <glyph glyph-name="fanhui" unicode="&#xe64e;" horiz-adv-x="1000" 
d="M920 78q-16 0 -19 16q-2 7 -6 19t-21.5 43.5t-41.5 57.5q-109 114 -319 119v-162q0 -12 -11 -17.5t-21 1.5l-383 277q-9 6 -9 16.5t9 16.5l383 279q10 7 21 1.5t11 -17.5v-173q58 -2 117 -18q120 -31 196 -109q118 -119 114 -330q0 -8 -5 -13.5t-13 -6.5h-2zM493 374
q133 0 233 -42q81 -33 136 -93q17 -18 31 -38q-20 122 -95 199q-38 38 -86.5 64t-94.5 35.5t-72 13t-47 3.5q-3 0 -5 -1v0q-8 0 -14 6t-6 14v153l-330 -239l330 -239v144q0 8 5.5 14t14.5 6z" />
    <glyph glyph-name="yanjing" unicode="&#xe635;" 
d="M1005 300q0 -29 -22.5 -67.5t-67.5 -78.5t-103.5 -74t-137.5 -56t-162 -22q-81 0 -159.5 21.5t-137 55.5t-104 74t-69 78.5t-23.5 68.5t23.5 68.5t69 78.5t104.5 74t137 55t159 21q84 0 163 -21t137.5 -55t103 -74t67.5 -78.5t22 -68.5zM512.5 543q-98.5 0 -168 -71
t-69.5 -172t69.5 -172t168 -71t168 71t69.5 172t-69.5 172t-168 71zM512 455q-63 0 -107 -45.5t-44 -109.5t44 -109.5t107 -45.5t107 45.5t44 109.5t-44 109.5t-107 45.5z" />
    <glyph glyph-name="fanhuidingbu" unicode="&#xe600;" 
d="M39 812h946v-158h-946v158zM985 103h-237v-315h-472v315h-237l473 473z" />
    <glyph glyph-name="xiazai" unicode="&#xe64c;" 
d="M399 459q-2 2 -6 5.5t-17.5 10t-28 9.5t-35.5 0t-42 -15q-58 -36 -55 -108q0 -8 1 -8q-6 -1 -16 -4t-35.5 -16t-45 -31t-35.5 -52t-16 -76q1 -31 10.5 -55.5t23 -40t31.5 -27t33 -17t31 -8.5t22 -3.5t9 -0.5l313 1l-145 131l80 -1v159h103l1 -159l78 -1l-117 -130h264
q3 0 8 0.5t21 3.5t30.5 7.5t32.5 15.5t32.5 25.5t26 38t15.5 52.5q3 44 -11.5 79.5t-33.5 54t-44 32.5t-35.5 17t-16.5 4v0q0 3 0.5 8t-0.5 21t-3 32t-8 37.5t-15 40.5t-24 39.5t-34.5 36t-47.5 27t-62 15.5q-51 5 -94 -8.5t-68.5 -36t-43 -47.5t-24.5 -40.5t-7 -17.5z" />
    <glyph glyph-name="twitter" unicode="&#xe68c;" 
d="M62 247q4 -3 10.5 -8.5t28 -18.5t43.5 -22t53.5 -15.5t61 -3.5t63 19t62.5 47q-24 1 -39 12q-6 5 -11 13t-7 14l-1 6q2 1 4.5 2.5t10 7t10.5 10t6 11.5t-4 12q-4 0 -10.5 0.5t-23.5 4t-30.5 9t-25.5 17.5t-13 29l57 36q-22 -11 -45 0q-2 2 -6 5t-13.5 12.5t-16 18.5
t-10.5 22.5t-1 24.5l49 5q-2 1 -5 3.5t-11.5 9.5t-15 14t-15.5 17.5t-12.5 19.5t-6 20.5t4.5 19.5l6 4q47 6 281 -147q2 7 6 19t17.5 43.5t28.5 58t39 52.5t49 37q16 -7 16 -15q13 27 30 30q0 -1 1.5 -2t4.5 -4.5t4.5 -7t0.5 -7.5t-4 -7q1 1 3.5 2.5t9.5 5t13 5.5t13 2
t12 -3q0 -3 -1.5 -7t-14.5 -16t-35 -24q5 0 14 -1.5t34 -12t46 -27t44.5 -52t35.5 -83.5q6 -2 17 -4.5t39.5 0.5t52.5 18v-3t-4 -8t-11 -13t-23.5 -17t-38.5 -19q0 -2 4 -3.5t21.5 -3.5t50.5 4q-1 -2 -1.5 -5.5t-6.5 -12t-16 -15t-32.5 -12t-52.5 -5.5q-2 -5 -6 -14.5
t-17.5 -37.5t-30 -53.5t-43.5 -58t-57 -58t-72 -46t-88 -27.5q-101 -15 -185.5 -3t-147.5 42t-101 66.5t-46 71.5v0z" />
    <glyph glyph-name="xiazai1" unicode="&#xe64d;" 
d="M496 59q1 -1 2 -2.5t3 -2.5v0v0q5 -3 10.5 -3t10.5 3v0h1l2.5 2.5l2.5 2.5l304 305q6 5 6 13t-5.5 13.5t-13.5 5.5t-14 -5l-274 -275v530q0 8 -5.5 13.5t-13.5 5.5t-13.5 -5.5t-5.5 -13.5v-530l-275 275q-6 5 -13.5 5t-13 -5.5t-5.5 -13.5t5 -13zM876 -26h-729
q-8 0 -13.5 -5.5t-5.5 -13.5t5.5 -13.5t13.5 -5.5h729q8 0 14 5.5t6 13.5t-6 13.5t-14 5.5z" />
    <glyph glyph-name="ordinarydownload" unicode="&#xe6c8;" 
d="M515 72l-244 339h133v276h221v-276h134l-244 -339v0zM903 161h-85v-162h-611v162h-86v-248h782v248v0z" />
    <glyph glyph-name="youjian" unicode="&#xe630;" 
d="M847 681h-671q-30 0 -51 -21t-21 -51v-432q0 -29 21 -50.5t51 -21.5h671q30 0 51 21.5t21 50.5v432q0 30 -21 51t-51 21zM152 177v423l211 -212l-211 -212v1zM186 633h651l-326 -325zM397 354l114 -114l115 115l202 -202h-632zM661 388h-2l212 212v-423z" />
    <glyph glyph-name="erweima" unicode="&#xe650;" 
d="M256 640h73v-73h-73v73zM841 55h73v-73h-73v73zM841 201h-73v73v73h-73h-73h-73v-73v-292h73v292h73v-73v-73h73h73h73v73v146h-73v-146zM695 55h73v-73h-73v73zM110 421h365v365h-365v-365zM183 713h219v-219h-219v219zM256 201h73v-73h-73v73zM110 -18h365v365h-365
v-365zM183 274h219v-219h-219v219zM695 640h73v-73h-73v73zM549 786v-365h365v365h-365zM841 494h-219v219h219v-219z" />
    <glyph glyph-name="ttpodicon" unicode="&#xe6a6;" 
d="M515 533q-10 0 -16.5 -6.5t-6.5 -16.5v-341l-89 88q-7 7 -16.5 7t-16.5 -6.5t-7 -16.5t7 -16l129 -129q6 -7 16 -7t16 7l129 129q7 6 7 16t-7 16.5t-16.5 6.5t-16.5 -7l-89 -88v341q0 10 -6.5 16.5t-16.5 6.5zM810.5 53q-6.5 -7 -13.5 -14t-7 -16.5t7 -16.5t16.5 -7
t16.5 7q8 8 15 16q6 7 5.5 16.5t-7.5 16t-16.5 6t-16 -7.5zM925.5 467.5q-38.5 94.5 -111.5 162.5t-168 97q-107 34 -219.5 12t-198.5 -94q-86 -70 -129 -175.5t-32 -215.5q11 -109 73.5 -202.5t158.5 -145.5q99 -54 214 -54t213 54q9 4 11.5 13.5t-2 18t-13.5 11t-18 -1.5
q-88 -49 -191 -49t-191 49q-87 46 -143 130t-66 182q-10 99 29 193t115 157q78 64 178.5 84t196.5 -10q85 -26 150.5 -87t100 -146t30 -174.5t-46.5 -167.5q-5 -8 -2 -17.5t11.5 -14t17.5 -1.5t14 11q47 87 52 187t-33.5 194.5z" />
    <glyph glyph-name="chuanzhen" unicode="&#xe631;" 
d="M865 334h-71v48q0 14 -10.5 23.5t-25.5 9.5h-16v270q0 18 -15 29.5t-38 11.5h-354q-23 0 -38 -11.5t-15 -29.5v-270h-16q-15 0 -25.5 -9.5t-10.5 -23.5v-48h-71q-23 0 -39.5 -15.5t-16.5 -37.5v-354q0 -22 16.5 -37.5t39.5 -15.5h706q23 0 39.5 15.5t16.5 37.5v354
q0 22 -16.5 37.5t-39.5 15.5v0zM333 675h2h354h2v-256h-2h-354h-2v256v0zM282 364h460v-174h-460v174v0zM870 -73q-1 -2 -5 -2h-706q-4 0 -5 2v354q1 2 5 2h71v-111q0 -14 10.5 -23.5t25.5 -9.5h492q15 0 25.5 9.5t10.5 23.5v111h71q4 0 5 -2v-354v0zM670 33.5
q0 -10.5 -7.5 -18.5t-18.5 -8t-18.5 8t-7.5 18.5t7.5 18.5t18.5 8t18.5 -8t7.5 -18.5zM794 33.5q0 -10.5 -7.5 -18.5t-18.5 -8t-18.5 8t-7.5 18.5t7.5 18.5t18.5 8t18.5 -8t7.5 -18.5z" />
    <glyph glyph-name="iconfontzhuye" unicode="&#xe667;" 
d="M918 289q10 9 9.5 22t-8.5 22l-388 406q-8 8 -19 8t-18 -8l-390 -406q-8 -7 -7.5 -19.5t10.5 -19.5q22 -12 40 7l26 25v-384q0 -6 9 -13.5t19 -7.5h124v-1h370v1h127q11 0 20 8.5t9 18.5v377q19 -20 26 -28q6 -7 17.5 -10.5t23.5 2.5zM613 -30h-200l-1 296h201v-296z
M800 -29h-137v319q0 11 -7.5 18.5t-18.5 7.5h-249q-11 0 -18.5 -7.5t-7.5 -18.5v-319h-138v407l288 300l288 -302v-405v0zM707 641h56v-85l50 -64v172q0 11 -7.5 19.5t-18.5 8.5h-114l-43 1l54 -52h23z" />
    <glyph glyph-name="iconfont74" unicode="&#xe62a;" 
d="M512 800q-139 0 -257 -68.5t-186.5 -186.5t-68.5 -257t68.5 -257t186.5 -186.5t257 -68.5t257 68.5t186.5 186.5t68.5 257t-68.5 257t-186.5 186.5t-257 68.5zM512 -160q-122 0 -225 60t-163 163t-60 225t60 225t163 163t225 60t225 -60t163 -163t60 -225t-60 -225
t-163 -163t-225 -60zM784 288h-240v288q0 14 -9.5 23t-22.5 9t-22.5 -9t-9.5 -23v-320v0v0v0q0 -12 8 -21q9 -11 24 -11h272q14 0 23 9.5t9 22.5t-9 22.5t-23 9.5z" />
    <glyph glyph-name="hezuo" unicode="&#xe63a;" 
d="M891 218l-36 39q45 42 70 89.5t30 82.5t0 70.5t-9.5 48.5t-8.5 21q-63 114 -166 136q-47 10 -92.5 -0.5t-74.5 -32.5q-38 -29 -117.5 -109t-120.5 -124t-62 -67l-39 36q28 30 66.5 72t119.5 123t121 112q36 27 92.5 41t117.5 1q127 -27 202 -163q4 -8 10 -23.5t12 -58.5
t1 -86.5t-34 -101t-82 -106.5zM160 208q-46 30 -77 67.5t-45 72t-19 72t-3 65t8.5 54t10 36.5t6.5 14q22 41 52 72t56.5 47.5t55.5 26.5t46 12.5t32 3.5q38 2 77 -9t64.5 -25.5t50 -34t33 -28t13.5 -14.5l-40 -34l-10.5 10.5t-27 23t-42 28.5t-53.5 21.5t-62 8.5
q-17 -1 -36 -5.5t-49 -16.5t-60 -41t-53 -70q-2 -5 -5 -13t-8 -30t-7 -44t2.5 -53t16.5 -58.5t38 -58.5t64 -56zM568 -211q-51 0 -97 51l40 36q40 -44 73 -31q14 6 17.5 29t1.5 40l-4 31l31 -1q38 -1 52 15q14 17 11 43l-5 34l34 -3q36 -4 51 12q20 20 14 58l-8 61l50 -36
q5 -3 18 2.5t24 17.5q25 29 3 51q-51 52 -215 215q-83 -82 -122 -97q-40 -16 -78 -17.5t-65.5 7.5t-51 25.5t-38 33.5t-23.5 34l48 24q1 -3 4 -7t11.5 -14.5t18.5 -19t26.5 -16.5t34.5 -12t42.5 -1.5t51.5 12.5q16 7 53 39t69 65l19 19l19 -19l6.5 -6.5l17 -17t25 -24.5
t31 -30.5l34 -34l35 -35l33 -33l29.5 -29.5t23 -24q25 -26 24.5 -59.5t-25.5 -63.5q-31 -36 -71 -39q-4 -41 -28 -66q-25 -26 -66 -29q-4 -33 -24 -55q-24 -27 -65 -32q-3 -75 -53 -96q-17 -7 -36 -7zM184 53q-38 0 -67 29q-24 25 -27 57q-3 36 21 58l129 125
q22 21 56.5 17.5t58.5 -28.5t27 -57q3 -36 -21 -58l-129 -125q-20 -18 -48 -18zM288 287q-7 0 -11 -4l-129 -124q-6 -5 -5 -15q2 -13 13 -25q9 -9 21 -12t18 3l129 124q6 5 5 15q-2 13 -13 25q-13 13 -28 13zM269 -33q-38 0 -67 30q-25 26 -27 59.5t21 55.5l129 124
q22 21 56.5 17.5t58.5 -28.5t27 -57q3 -35 -21 -58l-129 -124q-20 -19 -48 -19zM373 202q-7 0 -11 -4l-129 -125q-6 -5 -4 -17t12 -22q13 -14 28 -14q7 0 11 4l129 124q6 5 5 15q-2 13 -13 25q-13 14 -28 14zM354 -119q-38 0 -67 30q-25 26 -27 60t21 55l129 124
q22 21 56.5 17.5t58.5 -28.5q25 -26 27 -59.5t-21 -55.5l-129 -124q-20 -19 -48 -19zM458 116q-7 0 -11 -4l-129 -124q-6 -5 -4 -17.5t12 -22.5q13 -14 28 -14q7 0 11 4l129 125q6 4 4 16.5t-12 22.5q-13 14 -28 14zM439 -205q-38 0 -67 30q-24 25 -27 57q-3 36 21 58
l129 125q22 20 56.5 17t58.5 -29q24 -24 27 -56q3 -36 -21 -59l-129 -124q-20 -19 -48 -19zM543 30q-7 0 -11 -4l-129 -124q-5 -5 -5 -15q2 -13 13 -25q13 -13 28 -13q7 0 11 4l129 124q6 5 5 15q-2 13 -13 24q-13 14 -28 14v0zM588 183l150 -149l-38 -38l-149 150zM685 274
l142 -142l-38 -37l-142 141z" />
    <glyph glyph-name="biaoqian" unicode="&#xe651;" 
d="M899 534l-30 -10l54 -161l-466 -466l-349 348l467 467l174 -59l10 30l-192 65l-503 -503l393 -393l502 503zM668 558q-42 0 -71.5 -30t-29.5 -72t29.5 -71.5t71.5 -29.5t71.5 29.5t29.5 71.5q0 33 -19 60l200 200q11 11 0 22t-22 0l-200 -200q-27 20 -60 20zM717.5 406.5
q-20.5 -20.5 -49.5 -20.5t-49.5 20.5t-20.5 49.5t20.5 49.5t49.5 20.5t49.5 -20.5t20.5 -49.5t-20.5 -49.5z" />
    <glyph glyph-name="fanhuidingbu1" unicode="&#xe601;" 
d="M915 585h-806q-19 0 -32 -13t-13 -31.5t13 -32t32 -13.5h806q19 0 32 13.5t13 32t-13 31.5t-32 13zM544 345q-13 13 -32 13t-32 -13l-380 -380q-13 -13 -13 -32t13 -32t31.5 -13t32.5 13l348 349q348 -348 348 -349q13 -13 32 -13t32 13t13 32t-13 32z" />
    <glyph glyph-name="phone-line" unicode="&#xe632;" 
d="M900 115q6 -6 13 -11q29 -24 41 -38v0v0v0q3 -4 5 -6q2 -3 4 -4q0 -1 1 -2q1 -2 2 -3l6 -9v-1q15 -30 -4 -71q-18 -39 -57 -75q-81 -75 -154 -75q-11 0 -21 2q-74 9 -198 78q-133 73 -232.5 167.5t-176.5 220.5q-73 118 -83 189q-6 46 21 96q25 44 70 81q1 1 3 2.5t2 2.5
q42 34 75 46q17 8 32 8t30 -6v-1q5 -2 13 -6q35 -17 70 -64q23 -31 40 -59q21 -36 35 -68l1 -1l2 -7q14 -36 -14 -62q0 -1 -2 -3l-1 -1l-1 -1q-1 0 -3 -2q-4 -3 -5 -4h-1q-11 -8 -19 -12l-12 -8h-1q-11 -6 -32 -15q-19 -7 -31 -13q-11 -6 -14.5 -20.5t0.5 -19.5
q31 -68 122 -155q63 -60 157 -113q8 -5 17 -5q11 0 22 7.5t17 17.5q5 10 15 29l10 20v0q10 18 18 30q5 7 8 10q11 16 30 22q10 4 22 4q16 0 27 -6l21 -10v0q1 -1 4 -3q5 -2 10 -6q16 -10 33 -21q3 -2 7 -5zM720 153q-6 -7 -20 -32q-3 -5 -10 -18q-10 -20 -16 -31
q-10 -18 -30.5 -32t-43.5 -14q-20 0 -37 10q-98 56 -165 119q-97 92 -131 168q-10 22 -3 48q9 32 36 46q14 6 34 14q18 7 26 12t14 9q7 3 16 9l2 2q3 2 4 3l2 2v0q8 8 4 18l-1 1l-2 7q-13 30 -32 62q-16 26 -38 55q-28 39 -54 52h-1l-12 6q-6 3 -13 3t-17 -4l-1 -1
q-26 -9 -63 -40q-4 -3 -5 -4q-39 -32 -60 -70.5t-16 -69.5q9 -63 77 -174q74 -121 170 -211.5t224 -161.5q117 -65 183 -74q8 -1 16 -1q57 0 127 65q33 30 47 61q5 10 6 21t-2 16l-4 5v0v1q-3 3 -8 9q-11 12 -36 33q-40 33 -73 55q-26 17 -43 28l-20 9q-3 2 -9 2q-5 0 -9 -1
q-7 -3 -10 -8z" />
    <glyph glyph-name="ie" unicode="&#xe736;" 
d="M727 319h205q2 20 2 43q0 103 -51 191q54 144 -13 212q-31 32 -111.5 26t-176.5 -48q-14 1 -30 1q-132 0 -235 -81.5t-135 -207.5q86 110 194 162q-1 -2 -56 -56q-74 -74 -128.5 -162.5t-78 -164t-23 -136t26.5 -86.5q43 -39 110 -35.5t153 45.5q81 -41 172 -41
q125 0 223.5 72t137.5 186h-206q-22 -40 -61.5 -64t-86.5 -24t-86.5 24t-60.5 64q-20 37 -20 79v1h335zM392 419q4 64 50.5 108t110 44t110 -44t50.5 -108h-321zM868 722q43 -43 4 -151q-66 101 -178 146q126 53 174 5v0zM171 25q-27 29 -20.5 83t42.5 126q46 -128 163 -199
q-134 -60 -185 -10v0v0z" />
    <glyph glyph-name="shipin1" unicode="&#xe687;" 
d="M413 163l223 112q16 8 16 25t-16 25l-223 112q-14 7 -27.5 -1t-13.5 -24v-224q0 -16 13.5 -24t27.5 -1zM876 636h-728q-35 0 -59.5 -25t-24.5 -60v-502q0 -35 24.5 -60t59.5 -25h728q35 0 59.5 25t24.5 60v502q0 35 -24.5 60t-59.5 25zM232 48q0 -11 -8 -19.5t-20 -8.5
h-55q-12 0 -20.5 8t-8.5 20v56q0 12 8 20t21 8h55q12 0 20 -8t8 -20v-56zM232 272q0 -12 -8 -20t-20 -8h-55q-12 0 -20.5 8t-8.5 20v56q0 12 8 20t21 8h55q12 0 20 -8t8 -20v-56zM232 496q0 -12 -8 -20t-20 -8h-55q-12 0 -20.5 8t-8.5 20v56q0 11 8 19.5t21 8.5h55
q12 0 20 -8t8 -20v-56zM736 20h-448v560h448v-560zM904 48q0 -11 -8 -19.5t-21 -8.5h-55q-12 0 -20 8t-8 20v56q0 12 8 20t20 8h56q11 0 19.5 -8t8.5 -20v-56zM904 272q0 -12 -8 -20t-21 -8h-55q-12 0 -20 8t-8 20v56q0 12 8 20t20 8h56q11 0 19.5 -8t8.5 -20v-56zM904 496
q0 -12 -8 -20t-21 -8h-55q-12 0 -20 8t-8 20v56q0 11 8 19.5t20 8.5h56q11 0 19.5 -8t8.5 -20v-56z" />
    <glyph glyph-name="403" unicode="&#xe664;" 
d="M168 349l-4 -23h122l5 23h-123zM479 326l4 23h-139l-5 -23h140zM556 443l-19 -94l-5 -23l-19 -94h-193l-4 -21h225l30 138l19 94h271l-21 -94h-216l-49 -232h-280l-4 -22h314l30 137l19 94h182l-19 -94h-129l-29 -137l-20 -94h-421l49 231h-177l20 94l5 23l20 94h175
l49 231h193l25 117h357l-20 -94h-305l-4 -23l-19 -94h-193l-5 -21h227l4 21l20 94h270l-20 -94h-216l-24 -115h-280l-6 -22h193z" />
    <glyph glyph-name="iconfontgengduo" unicode="&#xe645;" 
d="M569 260l28 28v0v0l-28 28v0l-452 452l-28 -28l452 -452l-452 -451l28 -28zM427 739l452 -452l-452 -451l28 -28l480 480l-28 28v0l-451 451zM427 739z" />
    <glyph glyph-name="dizhi" unicode="&#xe63b;" 
d="M513.5 569q-64.5 0 -110 -44.5t-45.5 -107.5t45.5 -108t110 -45t110 45t45.5 108t-45.5 107.5t-110 44.5zM513 316q-43 0 -73 29.5t-30 71.5t30 71.5t73 29.5t73.5 -29.5t30.5 -71.5t-30.5 -71.5t-73.5 -29.5zM513 -133q-20 0 -46 18q-21 15 -45 41q-50 54 -100 134
q-53 88 -86 175q-37 101 -37 182q0 130 92 222t222 92t222 -92t92 -222q0 -81 -38 -182q-32 -87 -86 -175q-49 -80 -99 -134q-25 -26 -45 -41q-26 -18 -46 -18zM513 679q-109 0 -185.5 -77t-76.5 -185q0 -66 29.5 -151t83.5 -174q46 -75 92 -126q40 -43 57 -47q17 4 57 47
q46 52 92 126q54 89 83.5 174t29.5 151q0 109 -76.5 185.5t-185.5 76.5z" />
    <glyph glyph-name="tianmao" unicode="&#xe624;" 
d="M968 468q-11 43 -33 55q-21 13 -49 -13l-27 -32q-42 -48 -78 -70q-49 -30 -112 -30h-282q-60 0 -112 39q-21 17 -78 80q-41 46 -76 26q-22 -12 -33 -55q-6 -26 -6 -67v-65h-1v-124q0 -40 17 -61q17 -20 46 -22l232 -3q33 -3 51 -17h202q18 14 52 17l231 3q29 2 46 22
q16 19 16 61v189q0 41 -6 67zM187 201q-30 28 -30 69q0 40 30 70q27 27 64 29q-9 -5 -18 -29q-8 -28 -8 -70.5t8 -70.5q8 -20 16 -27q-37 3 -62 29zM327 201q-26 -26 -63 -29q8 7 15 27q9 29 9 71t-9 70q-8 24 -17 29q36 -2 65 -29q29 -31 29 -70q0 -40 -29 -69zM498 292
l12 2h36l11 -2q4 -4 -1 -9l-22 -32q-3 -3 -6 -3l-6 3l-23 32q-3 4 -1 9zM633 164q-11 -16 -46 -16q-38 0 -52 28l-1 2l-6 3h-1l-6 -3l-1 -2q-14 -28 -52 -28q-35 0 -46 16v11q13 -11 37 -13q34 -4 49 22q9 17 9 40h21l2 -16q2 -20 7 -24q15 -26 49 -22q24 2 37 13v-11v0z
M730 201q-29 27 -29 69t29 70q25 26 63 29q-9 -6 -16 -29q-10 -26 -10 -70t10 -71q6 -20 14 -27q-38 3 -61 29zM869 201q-24 -26 -62 -29q9 7 15 27q10 27 10 71t-10 70q-7 24 -17 29q37 -2 64 -29q29 -28 29 -70t-29 -69z" />
    <glyph glyph-name="share" unicode="&#xe602;" 
d="M824 188q-70 0 -115 -49l-358 208q6 25 0 49l358 207q46 -50 115 -50q65 1 109 45t45 109q-1 66 -45 110t-109 45q-66 -1 -110.5 -45.5t-45.5 -109.5q0 -10 3 -29l-356 -204q-47 52 -115 52q-66 -1 -110.5 -45t-45.5 -109q1 -66 45.5 -109.5t110.5 -44.5q68 0 115 51
l356 -205q-3 -19 -3 -30q1 -66 45.5 -109.5t110.5 -44.5q65 1 109 44.5t45 109.5q-1 65 -45 109t-109 45z" />
    <glyph glyph-name="zhifubao" unicode="&#xe603;" 
d="M418 719l-2 -66h-266v-50h269v-88h-222v-48l452 4l-4 -16q-8 -30 -32 -87t-30 -60q-8 -2 -74 17q-85 26 -136.5 35.5t-108.5 9.5q-58 -1 -99 -12.5t-77 -37.5q-71 -50 -75.5 -133.5t60.5 -138.5q70 -59 175 -64t209 45q36 18 90.5 57t76.5 64l12 14l38 -19
q29 -15 157.5 -74t158.5 -72l22 -9v173l-59 15q-41 11 -121 36t-112 38l-17 6l23 46q17 36 43.5 111t26.5 89q0 7 -20 9t-98 2h-117v88h282v44q0 4 -141 3l-141 -1v136h-141zM391 280q67 -23 104 -42l39 -21l-22 -27q-23 -28 -63 -58q-57 -43 -114 -60.5t-125 -13.5
q-144 8 -153 118q-3 33 5 54.5t32 39.5q29 22 60.5 29t96.5 5q48 -1 73.5 -5.5t66.5 -18.5v0z" />
    <glyph glyph-name="qzone" unicode="&#xe604;" 
d="M505 836q-3 -2 -10 -9.5t-7 -10t-46 -97t-48 -101.5q-2 -5 -4 -8q-2 -2 -13 -26q-12 -24 -18 -29q-8 -6 -30.5 -9.5t-168.5 -19.5q-97 -11 -103 -16q-3 -3 -4 -10.5t1 -12.5q2 -4 85 -80q9 -9 27 -25q81 -75 94.5 -88.5t13.5 -18.5q-1 -1 -1 -2q0 -8 -6 -40
q-4 -20 -18 -94q-12 -63 -17 -89q-11 -56 -12 -67.5t5 -17.5q9 -10 37 5q21 10 62 35q32 18 43 24q14 8 35 21q20 12 21 12t14.5 8.5t15 8.5t17.5 9q32 20 47 17q9 -2 23 -9q62 -33 196 -113q27 -16 38 -20.5t20 -1.5q11 3 7 37q-2 18 -4 26q-2 10 -26 138q-5 34 -4 40.5
t14 11.5q34 14 32 22q-2 2 -44 -5q-57 -11 -118 -17q-89 -8 -199 -4q-128 4 -137 10q-2 1 -1 5.5t4.5 7.5t71.5 51q185 132 196 141q8 8 1 11q-6 2 -36 5q-77 10 -201 16q-67 3 -77 5q-13 2 6 6q68 13 209 17h45q100 -3 169 -12q29 -4 34.5 -5.5t5.5 -4.5q0 -2 -13.5 -12
t-79.5 -56q-16 -11 -35 -24t-34 -23t-18 -13q-20 -14 -25 -17q-37 -25 -62 -44q-13 -9 -13 -12q0 -5 43 -10q64 -8 154 -11t96 2q2 2 -1 16t-3 16q0 5 85 85q99 93 117 111t18 25q0 15 -17 19q-8 2 -68 8q-35 3 -78 7q-6 1 -25.5 3t-26.5 3q-87 9 -93 11q-7 4 -20.5 31.5
t-61.5 135.5q-49 111 -56 117q-10 9 -20 5v0z" />
    <glyph glyph-name="yihaodian" unicode="&#xe605;" 
d="M177 715.5q-122 -85.5 -124 -86.5q-1 -1 2 -1q4 0 47 4q45 5 46.5 3.5t-31.5 -211.5l-33 -210q0 -1 86 -1t86 1q0 2 23 289q23 289 23 292q0 5 -1.5 5.5t-123.5 -85zM424 586q-31 -3 -57 -21.5t-40 -46.5q-10 -22 -11 -49q-1 -18 2 -29q7 -34 32 -60q24 -24 57 -33
q26 -7 54 -1q32 6 56 27.5t35 51.5q14 40 0 80q-18 49 -64 71q-30 14 -64 10zM453 538q19 -4 35 -19q23 -22 23 -53q0 -18 -8 -34q-5 -10 -14 -19.5t-18 -13.5q-35 -17 -69 0q-21 11 -31 32q-17 34 0 68q4 9 13 18q17 17 41 22q4 1 13.5 0.5t14.5 -1.5v0zM800.5 586
q-1.5 -1 -1.5 -16.5t1.5 -17t29 -1.5t28.5 1.5t1 17t-1 16.5t-28.5 1t-29 -1zM684 545q-1 -2 -1 -113l-1 -112l-11 14q-11 14 -13 14t-27 -19q-25 -20 -26 -21q-2 -3 8 -15q8 -10 10.5 -10t11.5 7l9 7l9 -10q10 -12 19 -23l10 -13h23q23 0 24.5 1t1.5 124v122h71v-91v-91
l-12 -6q-13 -6 -20 -12q-41 -30 -48 -79q-9 -62 35 -106q30 -30 71 -35t77 16t52 61q17 41 2 84q-11 32 -36.5 54t-59.5 28l-11 1v35v35h50q50 0 51 1t1 21t-1.5 21.5t-50.5 1.5h-50v61h58q57 0 59 1q2 2 2 23v22q-1 2 -143.5 2t-143.5 -1v0zM862 273q19 -5 34 -20
q21 -20 22 -49q1 -20 -8 -38q-17 -35 -58 -41q-18 -3 -37 5t-30 22q-11 13 -15 30q-5 19 0 38q6 20 20.5 34t33.5 19t38 0v0zM306 329q-1 -2 -1 -25t1 -25t27 -2h25v-31q0 -32 1 -33t22 -2q60 -2 96 -17q42 -18 51 -53q2 -8 2 -24.5t-3 -24.5q-6 -24 -21 -41
q-13 -13 -31 -22q-27 -13 -73 -14h-26v-23q0 -22 1 -23q2 -2 21 -1.5t32 1.5q60 7 97 36.5t47 78.5q6 31 3 55q-9 63 -71 94q-31 15 -71 20q-12 1 -14 2h-4v22h81q82 0 83 1.5t1 26t-1 25.5t-137.5 1t-137.5 -2v0z" />
    <glyph glyph-name="unie6af" unicode="&#xe606;" 
d="M353 64q-27 0 -45.5 -18.5t-18.5 -45.5t18.5 -45.5t45.5 -18.5q17 0 31.5 8.5t23.5 23.5t9 32q0 27 -19 45.5t-45 18.5v0zM801 64q-27 0 -45.5 -18.5t-18.5 -45.5t18.5 -45.5t45 -18.5t45.5 18.5t19 45.5t-19 45.5t-45 18.5zM864 96h-520q-17 0 -33 6.5t-28 17.5
t-20.5 26.5t-10.5 32.5l-54 382l-31 179q-2 11 -11 19.5t-19 8.5h-41q-13 0 -22.5 9.5t-9.5 22.5t9.5 22.5t22.5 9.5h41q35 0 62 -24t31 -59l31 -178l54 -384q2 -11 10.5 -19t18.5 -8h520q13 0 22.5 -9.5t9.5 -22.5t-9.5 -22.5t-22.5 -9.5zM384 224q-12 0 -21.5 8.5
t-10.5 21.5q0 8 3.5 16t10.5 12.5t16 5.5l434 32q12 0 21 8t10 19l51 288q1 8 -1.5 16.5t-7.5 13.5q-3 3 -6.5 5t-8.5 2h-554q-13 0 -22.5 9.5t-9.5 22.5t9.5 22.5t22.5 9.5h554q12 0 23.5 -3.5t21.5 -9.5t18 -16q30 -33 24 -81l-51 -289q-4 -33 -30.5 -57t-61.5 -24
l-434 -32v0z" />
    <glyph glyph-name="unie6f3" unicode="&#xe607;" 
d="M769 192q-54 0 -91 -38l-310 172q4 7 6.5 13.5t4.5 14t3 15t1 15.5q0 17 -6 36l305 189q37 -33 85 -33q53 0 90.5 37.5t37.5 90.5t-37.5 90.5t-90.5 37.5t-90.5 -37.5t-37.5 -90.5q0 -10 2 -20.5t6 -20.5l-302 -188q-38 37 -90 37q-53 0 -90.5 -37.5t-37.5 -90.5
t37.5 -90.5t90.5 -37.5q38 0 70 21l321 -179q-5 -18 -5 -34q0 -53 37.5 -90.5t90.5 -37.5t90.5 37.5t37.5 90.5t-37.5 90.5t-90.5 37.5v0zM767 768q27 0 45.5 -19t18.5 -45q0 -10 -3 -20t-9 -18t-14 -14t-17.5 -9t-20.5 -3q-26 0 -45 18.5t-19 45.5q0 7 2 14.5t5 13.5
t7.5 12t10 10t11.5 7.5t13.5 5t14.5 1.5v0zM191 384q0 27 19 45.5t45.5 18.5t45 -18.5t18.5 -45t-18.5 -45.5t-45.5 -19q-9 0 -17 2.5t-15 6.5t-13 10t-10 13t-6.5 15t-2.5 17zM769 0q-27 0 -45.5 19t-18.5 45q0 18 8.5 32.5t23 23t32.5 8.5q26 0 45 -18.5t19 -45.5
q0 -17 -8.5 -31.5t-23.5 -23.5t-32 -9v0z" />
    <glyph glyph-name="unie69b" unicode="&#xe608;" 
d="M256 512q0 26 19 45t45 19t45 -19t19 -45t-19 -45t-45 -19t-45 19t-19 45zM843 0h-662q-31 0 -58.5 15.5t-43 43t-15.5 58.5v534q0 48 34.5 82.5t82.5 34.5h662q48 0 82.5 -34.5t34.5 -82.5v-534q0 -48 -34.5 -82.5t-82.5 -34.5zM181 704q-22 0 -37.5 -15.5t-15.5 -37.5
v-534q0 -22 15.5 -37.5t37.5 -15.5h662q22 0 37.5 15.5t15.5 37.5v534q0 22 -15.5 37.5t-37.5 15.5h-662zM224 127h-4q-1 0 -2.5 0.5t-3.5 0.5q-12 4 -18 16t-3 24q2 7 6.5 17.5t15 34.5t25.5 45t34.5 42t46.5 33.5t56 11.5q35 -1 92 -18q24 -7 35.5 -10t35.5 -6t39 2
q6 1 11 4.5t9 8.5t8 14t7 18.5t8 24.5q8 26 13.5 40.5t20 39t31 38t45.5 24.5t65 11q13 0 22.5 -9.5t9.5 -22.5t-9.5 -22.5t-22.5 -9.5q-28 0 -46.5 -6.5t-31 -23t-19.5 -32.5t-17 -46q-5 -16 -8 -24.5t-9 -23t-12.5 -23.5t-15.5 -19t-21.5 -16t-27.5 -8q-26 -2 -39.5 -3
t-36 3t-33 7t-29.5 9q-13 3 -19.5 5t-17.5 4.5t-20.5 4t-18.5 1.5h-1q-22 0 -43 -15.5t-36 -39.5t-25 -45t-16 -38q-6 -23 -30 -23v0z" />
    <glyph glyph-name="unie644" unicode="&#xe609;" 
d="M96 0q-13 0 -22.5 9.5t-9.5 22.5v448q0 13 9.5 22.5t22.5 9.5t22.5 -9.5t9.5 -22.5v-448q0 -13 -9.5 -22.5t-22.5 -9.5zM864 512h-189q12 28 19.5 83t0.5 107q-2 18 -7.5 34t-13.5 30t-19 25.5t-24.5 20t-28.5 13.5q-19 7 -38 7t-35.5 -5.5t-26.5 -16.5q-12 -12 -22 -35
t-15 -41t-14 -52l-5 -18l-4 -16q-2 -10 -4 -16.5t-4.5 -14.5t-5 -13.5t-5.5 -10.5q-14 -23 -40 -43t-41 -27t-28 -11h-90q-13 0 -22.5 -9.5t-9.5 -22.5v-448q0 -13 9.5 -22.5t22.5 -9.5h87q22 -12 49 -24t83.5 -26t108.5 -14h216q33 0 68.5 13t51 38.5t44 207.5t28.5 220
q0 39 -31 68t-65 29v0zM833 21q-4 -7 -24.5 -14t-40.5 -7h-216q-18 0 -37 2t-36 6t-33.5 8.5t-30 10t-26 11t-22 10t-16.5 8.5t-11 6l-4 2h-80v384h64q2 0 6 1q1 0 1 1h5l1 1q12 4 26 10.5t37 19.5t45.5 34t36.5 46q16 26 35 105q21 85 34 99q3 3 12.5 3t24.5 -4
q16 -7 30 -23t18 -47q5 -46 -4 -98.5t-16 -72t-12 -30.5q-7 -16 2 -31q9 -14 27 -14h235q5 0 12.5 -4.5t13.5 -12.5t6 -16q0 -53 -40 -286q-16 -93 -23 -108v0z" />
    <glyph glyph-name="unie650" unicode="&#xe60a;" 
d="M512 832q-146 0 -249 -103t-103 -249q0 -53 34 -127.5t76.5 -136.5t98 -130.5t80 -95.5t40.5 -44q9 -10 23 -10h1q14 0 23 11l109 125q219 268 219 408q0 146 -103 249t-249 103v0zM512 320q-66 0 -113 47t-47 113t47 113t113 47t113 -47t47 -113t-47 -113t-113 -47z" />
    <glyph glyph-name="unie731" unicode="&#xe60b;" 
d="M512 -32q-5 0 -10 1.5t-9 4.5t-7 7l-65 91q-156 28 -256.5 133.5t-100.5 242.5q0 159 131.5 271.5t316.5 112.5t316.5 -112.5t131.5 -271.5q0 -137 -100.5 -242.5t-256.5 -133.5l-65 -91q-10 -13 -26 -13v0zM512 768q-159 0 -271.5 -94t-112.5 -226q0 -76 40.5 -143.5
t113 -112.5t162.5 -59q13 -2 21 -13l47 -65l47 65q7 11 21 13q137 21 226.5 110t89.5 205q0 132 -112.5 226t-271.5 94zM288.5 384q-26.5 0 -45.5 19t-19 45t19 45t45.5 19t45 -19t18.5 -45t-18.5 -45t-45 -19zM288 448zM736 384q-7 0 -14.5 1.5t-13.5 5t-12 7.5t-10 10
t-7.5 12t-5 13.5t-1.5 14.5q0 26 19 45t45 19q10 0 20 -3t18 -9t14 -14t9 -18t3 -20q0 -26 -18.5 -45t-45.5 -19v0zM736 448zM513 384q-27 0 -46 19t-19 45t19 45t45 19q10 0 20 -3t18 -9t14 -14t9 -18t3 -20q0 -26 -18.5 -45t-44.5 -19v0zM512 448z" />
    <glyph glyph-name="unie734" unicode="&#xe60c;" 
d="M192 448q0 26 19 45t45 19t45 -19t19 -45t-19 -45t-45 -19t-45 19t-19 45zM715 640h-534q-31 0 -58.5 -15.5t-43 -43t-15.5 -58.5v-406q0 -48 34.5 -82.5t82.5 -34.5h534q48 0 82.5 34.5t34.5 82.5v406q0 48 -34.5 82.5t-82.5 34.5zM768 117q0 -22 -15.5 -37.5
t-37.5 -15.5h-534q-22 0 -37.5 15.5t-15.5 37.5v406q0 22 15.5 37.5t37.5 15.5h534q22 0 37.5 -15.5t15.5 -37.5v-406zM843 768h-587q-13 0 -22.5 -9.5t-9.5 -22.5t9.5 -22.5t22.5 -9.5h587q14 0 26.5 -7t19.5 -19.5t7 -26.5v-395q0 -13 9.5 -22.5t22.5 -9.5t22.5 9.5
t9.5 22.5v395q0 48 -34.5 82.5t-82.5 34.5zM673 447q-31 0 -55.5 -5t-40 -15.5t-26 -20.5t-17 -26t-9 -25t-5.5 -24q-6 -26 -10.5 -33.5t-18.5 -9.5q-15 -3 -27.5 -1.5t-17 3.5t-14.5 7q-36 22 -78 23q-97 2 -146 -108q-11 -25 -15 -46q-2 -7 -0.5 -13t4.5 -11t8.5 -9
t11.5 -5q3 -1 7 -1q7 0 13.5 3t11.5 9t6 13q1 4 3 11.5t10 25.5t18 31.5t27.5 24.5t37.5 11h2q24 0 46 -14q11 -6 19 -9.5t21.5 -7.5t27 -3t34.5 3q12 2 22 5.5t17.5 9t13 11t10 13t7.5 13.5t5 14.5t3.5 13.5t2.5 13q4 16 6 23t7.5 17t14.5 14.5t24.5 7.5t38.5 3
q13 0 22.5 9.5t9.5 23t-9.5 22.5t-22.5 9v0z" />
    <glyph glyph-name="unie6452" unicode="&#xe60d;" 
d="M888 598q-6 6 -14.5 8t-16.5 -0.5t-14 -9.5l-427 -454l-233 230q-10 9 -23 9t-22.5 -9.5t-9.5 -23t10 -22.5l256 -253h1q1 -1 7 -4q0 -1 1 -1.5t2 -1.5q6 -2 12 -2q7 1 12 3q1 0 2 1t2 1q5 3 7 5v0l449 479q9 9 9 22.5t-10 22.5v0z" />
    <glyph glyph-name="unie6462" unicode="&#xe60e;" 
d="M557 383l266 264q9 9 9 22t-9 23q-6 6 -14.5 8.5t-16.5 0t-15 -8.5l-265 -264l-263 264q-9 9 -22.5 9t-23 -9t-9.5 -22.5t10 -22.5l263 -264l-265 -264q-10 -9 -10 -22.5t9.5 -22.5t22.5 -9t23 9l265 264l265 -267q10 -9 23 -9q3 0 6 0.5t6 1.5t5.5 3t5.5 4q9 10 9 23
t-9 23z" />
    <glyph glyph-name="unie61c" unicode="&#xe60f;" 
d="M0 589q1 11 8 18t17.5 7t18.5 -7l442 -443l443 443q8 7 18.5 7t18 -7.5t7.5 -18t-8 -17.5l-461 -461q-7 -8 -17.5 -8t-18.5 8l-461 461q-3 3 -5 8t-2 10v0z" />
    <glyph glyph-name="unie61e" unicode="&#xe610;" 
d="M717 -128q10 0 17.5 7.5t7.5 18t-7 18.5l-443 442l443 443q7 8 7 18.5t-7 17.5q-5 5 -11.5 7t-13 0t-11.5 -7l-461 -461q-8 -7 -8 -17.5t8 -18.5l461 -461q2 -2 5 -3.5t6.5 -2.5t6.5 -1v0z" />
    <glyph glyph-name="unie90e" unicode="&#xe611;" 
d="M918 -21q0 -11 -5.5 -20.5t-14.5 -15t-20 -5.5q-8 0 -15.5 3t-13 8.5t-8.5 13t-3 16.5h-1q-14 119 -101 200.5t-206 85.5q-1 0 -4.5 -0.5t-5.5 -0.5h-4q-1 0 -3 0.5t-3 0.5q-119 -4 -206 -85.5t-101 -200.5h-1q0 -17 -11.5 -29t-28.5 -12q-8 0 -15.5 3t-13 8.5t-8.5 13
t-3 16.5v3q0 9 5 19q15 105 78 188.5t157 124.5q-56 39 -89 101t-33 134q0 119 82 202.5t198 83.5t198 -83.5t82 -202.5q0 -72 -33 -134t-89 -101q94 -41 157 -125t79 -189q4 -9 4 -18v-3v0zM720 549q0 42 -16 79.5t-42.5 65t-63.5 43.5t-78 16q-54 0 -100.5 -27t-73 -74
t-26.5 -103q0 -84 58.5 -143.5t141.5 -59.5t141.5 59.5t58.5 143.5v0z" />
    <glyph glyph-name="unie605" unicode="&#xe612;" 
d="M33 377l307 307q8 7 18.5 7t17.5 -7q5 -5 7 -11.5t0 -13.5t-7 -11l-263 -264h834q11 0 18.5 -7.5t7.5 -18.5q0 -4 -1.5 -8t-4 -7t-5.5 -5.5t-7 -3.5t-8 -1h-834l263 -264q3 -2 4.5 -4.5t2 -5t1 -5.5t0 -5.5t-1 -5.5t-2 -5.5t-4.5 -4.5q-8 -7 -18 -7q-10 1 -18 7l-307 307
q-7 8 -7 18.5t7 18.5v0z" />
    <glyph glyph-name="unie607" unicode="&#xe613;" 
d="M991 377l-307 307q-8 7 -18.5 7t-18 -7.5t-7.5 -18t8 -17.5l263 -264h-834q-7 0 -13 -3.5t-9.5 -9.5t-3.5 -12.5t3.5 -12.5t9.5 -9.5t13 -3.5h834l-263 -264q-8 -7 -8 -17.5t7.5 -18t18.5 -7.5q10 1 18 7l307 307q4 4 5.5 9t1.5 9.5t-1.5 9.5t-5.5 9z" />
    <glyph glyph-name="unie620" unicode="&#xe614;" 
d="M353 -77q-10 0 -17 7t-7 17t7 17l416 414l-416 416q-7 7 -7 17t7 16q5 5 11 7t12.5 0t10.5 -7l432 -432q4 -3 5.5 -7.5t1.5 -8.5t-1.5 -9t-5.5 -8l-432 -433q-6 -6 -17 -6v0z" />
    <glyph glyph-name="unie622" unicode="&#xe615;" 
d="M0 128q1 -11 8 -18q7 -8 17.5 -8t18.5 8l442 443l443 -443q8 -8 18.5 -8t17.5 8q3 2 4.5 5t2.5 6.5t1 6.5t-1 6.5t-2.5 6.5t-4.5 5l-461 461q-4 5 -11 6.5t-13.5 0t-11.5 -6.5l-461 -461q-7 -7 -7 -18v0z" />
    <glyph glyph-name="unie664" unicode="&#xe616;" 
d="M961 841q-12 7 -25 1l-296 -148l-296 148q-11 6 -23 0l-307 -154q-14 -7 -14 -22v-768q0 -15 12 -22q3 -2 6.5 -3t7.5 -1q6 0 11 3l296 148l296 -148q11 -6 23 0l307 153q14 7 14 23v768q0 14 -12 22v0zM307 67l-256 -128v711l256 128v-711zM358 778l256 -128v-711
l-256 128v711zM922 67l-256 -128v711l256 128v-711z" />
    <glyph glyph-name="untitled49" unicode="&#xe617;" 
d="M737 882h-449q-45 0 -76.5 -32.5t-31.5 -77.5v-776q0 -46 31.5 -78t76.5 -32h449q44 0 75.5 32t31.5 78v776q0 45 -31.5 77.5t-75.5 32.5v0zM512.5 -58q-33.5 0 -57.5 24.5t-24 59t24 59t57.5 24.5t57.5 -24.5t24 -59t-24 -59t-57.5 -24.5zM782 156h-539v622
q0 15 13 28.5t28 13.5h457q14 0 27.5 -13.5t13.5 -28.5v-622z" />
    <glyph glyph-name="untitled57" unicode="&#xe618;" 
d="M895 304q-49 -106 -139.5 -172t-201.5 -77v-107h83q5 0 14.5 0.5t12.5 0t7.5 -2t5.5 -6.5t1 -13q0 -20 -13 -30.5t-36 -10.5h-220q-42 0 -42 41q0 9 1 13.5t5.5 6t7.5 2t12.5 0t15.5 -0.5h83v105q-117 6 -214 72.5t-148 178.5q-11 18 -10 34.5t19 24.5t35 -5.5t27 -35.5
q41 -89 130.5 -149.5t181 -60.5t181 60.5t130.5 149.5q10 22 27 35.5t35 5.5t18.5 -24.5t-9.5 -34.5v0zM637 384q0 11 5 16t16 5q41 0 41 -42q0 -86 -53 -127.5t-134 -41.5q-69 0 -113.5 44.5t-52.5 103.5v374q3 62 50 114t116 52q77 0 124.5 -39.5t62.5 -126.5v-104
q0 -24 -5 -33t-25 -10q-22 0 -27.5 9.5t-4.5 33.5v125q-15 29 -30.5 47t-33 25t-29.5 9t-32 2q-34 0 -58.5 -18t-44.5 -65v-395q11 -38 41 -60.5t62 -22.5q24 0 46.5 6t45.5 26t33 51v9t-0.5 15t0.5 18v0z" />
    <glyph glyph-name="untitled80" unicode="&#xe619;" 
d="M979 674h-72v-601q0 -52 -36.5 -88.5t-88.5 -36.5h-539q-52 0 -88.5 36.5t-36.5 88.5v601h-73q-13 0 -22 9.5t-9 21.5v0q0 13 9 22.5t22 9.5h405v16q0 25 0.5 34.5t7 19t18.5 11.5t36 2h42q24 0 36.5 -2t18.5 -11.5t6.5 -19t0.5 -34.5v-16h363q13 0 22 -9.5t9 -22.5v0
q0 -12 -9 -21.5t-22 -9.5zM844 674h-664v-560q0 -104 104 -104h457q103 0 103 104v560v0zM647 52v0q-13 0 -22 9t-9 22v477q0 13 9 22t22 9v0q13 0 22 -9t9 -22v-477q0 -13 -9 -22t-22 -9zM377 52v0q-12 0 -21.5 9t-9.5 22v477q0 13 9.5 22t21.5 9v0q13 0 22.5 -9t9.5 -22
v-477q0 -13 -9.5 -22t-22.5 -9z" />
    <glyph glyph-name="untitled101" unicode="&#xe61a;" 
d="M894 270q-48 0 -82 33.5t-34 80.5t34 80.5t82 33.5t82 -33.5t34 -80.5t-34 -80.5t-82 -33.5zM512 270q-48 0 -82 33.5t-34 80.5t34 80.5t82 33.5t82.5 -33.5t34.5 -80.5t-34.5 -80.5t-82.5 -33.5zM130.5 270q-48.5 0 -82.5 33.5t-34 80.5t34 80.5t82.5 33.5t82.5 -33.5
t34 -80.5t-34 -80.5t-82.5 -33.5z" />
    <glyph glyph-name="dianhua" unicode="&#xe633;" 
d="M889 93q0 -101 -63.5 -121.5t-315 -20.5t-315 20.5t-63.5 121.5q0 46 19.5 106.5t55 122t81 114t104.5 85.5t118.5 33t118.5 -33t104.5 -85.5t81.5 -114t55 -122t19 -106.5v0v0zM511 489q-67 0 -113.5 -46.5t-46.5 -113t46.5 -113t113 -46.5t113 46.5t46.5 113t-46.5 113
t-112.5 46.5v0v0zM180 371q26 43 58 79.5t73 69t92.5 51t107.5 18.5q54 0 108 -20.5t95.5 -53.5t73.5 -69.5t54 -74.5q22 -35 55 -33.5t51 33.5q5 8 8 25.5t0.5 45.5t-14.5 57.5t-43.5 59.5t-78 53.5t-127 38.5t-183 15t-182.5 -15t-127 -39t-78.5 -54.5t-43 -60.5
t-14.5 -57.5t0.5 -45t7.5 -23.5q17 -22 40.5 -26t41.5 4.5t25 21.5v0v0z" />
    <glyph glyph-name="laba" unicode="&#xe658;" 
d="M513 823l-220 -220h-156q-30 0 -51.5 -21.5t-21.5 -51.5v-293q0 -30 21.5 -51.5t51.5 -21.5h156l220 -220q30 0 51.5 21.5t21.5 51.5v733q0 30 -21.5 51.5t-51.5 21.5v0zM513 20l-193 212h-183v293h183l193 212v-717v0zM947 351q6 0 9.5 9.5t3.5 23t-3.5 23t-9.5 9.5h-92
q-5 0 -9 -9.5t-4 -23t4 -23t9 -9.5h92v0zM957 767q5 2 3.5 12.5t-8 22t-14.5 17.5t-13 3l-80 -45q-4 -3 -2.5 -13t8 -21.5t14.5 -18t13 -3.5l79 46v0zM957 0q5 -3 3.5 -13t-8 -21.5t-14.5 -17.5t-13 -4l-80 46q-4 3 -2.5 13t8 21.5t14.5 18t13 3.5l79 -46v0zM638 219
q-12 31 12 41q63 28 71 110q5 44 -14 81t-55 53q-13 8 -16.5 20t3.5 24q8 12 20 15.5t24 -3.5q55 -32 83.5 -84t21.5 -113q-5 -51 -34.5 -94t-75.5 -63q-10 -6 -22.5 -2.5t-17.5 15.5v0zM638 219z" />
    <glyph glyph-name="yanjing1" unicode="&#xe653;" 
d="M512 175q53 0 120 25t119.5 58.5t90.5 66t44 49.5q-3 18 -37.5 53.5t-86 72t-120.5 64t-130 27.5q-79 0 -168 -37t-147.5 -88.5t-58.5 -92.5q2 -16 37.5 -48t87 -65.5t121 -59t128.5 -25.5zM512 134q-62 0 -137.5 26.5t-135.5 64t-101 79t-41 69.5q0 57 67.5 119
t165.5 101t182 39q67 0 143.5 -29.5t135 -71t97.5 -86t39 -72.5q0 -24 -42 -64.5t-102.5 -79t-136 -67t-134.5 -28.5v0v0v0zM512 134zM512 279q43 0 73.5 30.5t30.5 73.5t-30.5 73.5t-73.5 30.5t-73.5 -30.5t-30.5 -73.5t30.5 -73.5t73.5 -30.5zM512 238q-60 0 -102.5 42.5
t-42.5 102.5t42.5 102.5t102.5 42.5t102.5 -42.5t42.5 -102.5t-42.5 -102.5t-102.5 -42.5v0v0v0zM512 238z" />
    <glyph glyph-name="jingdong" unicode="&#xe61b;" 
d="M675 -12h-140h-93v93v606v93h93h140q95 0 175.5 -53t127 -144.5t46.5 -198.5t-46.5 -198.5t-127 -144.5t-175.5 -53zM675 687h-140v-606h140q106 0 181 89t75 214t-75 214t-181 89zM47 -12h-47v93h47q77 0 131.5 55t54.5 132v512h93v-512q0 -116 -82 -198t-197 -82z" />
    <glyph glyph-name="fenxiang" unicode="&#xe652;" horiz-adv-x="1103" 
d="M300 545q11 0 19 8l214 231v-544q0 -10 7.5 -18t18.5 -8t18.5 8t7.5 18v540l210 -227q8 -8 18.5 -8t18.5 7t8.5 18t-6.5 19l-252 272q-7 14 -23 14h-0.5h-0.5h-0.5h-0.5q-11 0 -19 -8l-257 -278q-8 -8 -7.5 -19t8.5 -18q7 -7 18 -7zM1053 580q-11 0 -19 -8t-8 -19v-608
h-950v608q0 11 -7.5 19t-18.5 8t-18.5 -8t-7.5 -19v-661h1055v661q0 11 -7.5 19t-18.5 8z" />
    <glyph glyph-name="favorfill" unicode="&#xe638;" 
d="M999 494q0 -13 -15 -28l-212 -206l50 -291q1 -5 1 -12q0 -12 -6 -20.5t-18 -8.5q-11 0 -23 7l-262 137l-262 -137q-12 -7 -23 -7q-12 0 -18 8.5t-6 20.5q0 3 1 12l50 291l-212 206q-15 16 -15 28q0 22 33 27l292 42l131 265q12 24 29 24t29 -24l131 -265l292 -42
q33 -5 33 -27v0z" />
    <glyph glyph-name="kefu1" unicode="&#xe713;" horiz-adv-x="1026" 
d="M226 170q123 -92 292 -92q77 0 155.5 27.5t132.5 72.5q69 -37 119 -112t51 -153h-923q9 87 60 155t113 102v0zM800 225q-58 -52 -132 -81.5t-155.5 -29.5t-155.5 29t-132 82q-104 -52 -163.5 -142.5t-59.5 -210.5h1024q0 120 -60.5 210.5t-165.5 142.5v0zM180 375v260
h-12q46 98 138.5 157.5t205.5 59.5t206 -59.5t138 -157.5h-11v-260q55 0 94 38t39 92q0 36 -18.5 66.5t-49.5 47.5q-44 123 -152.5 200t-245 77t-245.5 -77t-152 -200q-32 -17 -50 -47.5t-18 -66.5q0 -54 38.5 -92t94.5 -38v0v0zM512 248q-100 0 -170.5 69t-70.5 167
q0 96 72.5 165.5t168.5 69.5q99 0 169.5 -69t70.5 -166.5t-70.5 -166.5t-169.5 -69v0zM512 765q-119 0 -203.5 -82.5t-84.5 -199.5t84.5 -199.5t203.5 -82.5t203.5 82.5t84.5 199.5t-84.5 199.5t-203.5 82.5v0zM512 765z" />
    <glyph glyph-name="bianji" unicode="&#xe6b1;" 
d="M346 345q-1 -2 -1 -3l-45 -165q-5 -16 7 -28q8 -8 20 -8q3 0 7 1l164 45h0.5h0.5q3 0 5 2l439 439q21 20 21 50q0 35 -26 60l-41 42q-26 26 -61 26q-30 0 -50 -21l-439 -439l-0.5 -0.5zM900 671l-43 -43l-71 71l43 43q5 6 13.5 5t14.5 -7l41 -41q7 -7 7 -16q0 -7 -5 -12z
M424 338l317 317l71 -72l-316 -317zM367 209l22 84l62 -61zM928.5 497q-12.5 0 -21.5 -9t-9 -21v-410q0 -16 -11.5 -27.5t-27.5 -11.5h-693q-16 0 -27.5 11.5t-11.5 27.5v669q0 16 11.5 27.5t27.5 11.5h446q13 0 22 8.5t9 21t-9 21.5t-22 9h-450q-40 0 -67.5 -28t-27.5 -67
v-678q0 -39 27.5 -67t67.5 -28h702q39 0 67 28t28 67v415q0 12 -9 21t-21.5 9z" />
    <glyph glyph-name="xiajiantou" unicode="&#xe649;" 
d="M511.5 833q-91.5 0 -174.5 -35.5t-143 -95.5t-95.5 -143t-35.5 -174t35.5 -174t95.5 -143t143 -95.5t174.5 -35.5t174.5 35.5t143 95.5t95.5 143t35.5 174t-35.5 174t-95.5 143t-143 95.5t-174.5 35.5zM511.5 1q-104.5 0 -193 51.5t-140 140t-51.5 192.5t51.5 192.5
t140 140t193 51.5t193 -51.5t140 -140t51.5 -192.5t-51.5 -192.5t-140 -140t-193 -51.5zM743 480q-9 9 -21.5 9t-21.5 -9l-186 -188l-188 187q-9 10 -22.5 10t-23 -9.5t-9.5 -22.5t10 -23l207 -207q10 -10 24 -10q13 0 22 9l209 211q9 9 9 21.5t-9 21.5z" />
    <glyph glyph-name="kefu" unicode="&#xe639;" 
d="M934 539q-42 134 -157 219.5t-259 85.5q-145 0 -259 -84.5t-158 -218.5q-32 -5 -53 -29.5t-21 -57.5v-199q0 -34 23 -59.5t56 -28.5q21 -73 103 -124t193 -60q9 -15 32 -24.5t51 -9.5q37 0 63 15t26 36.5t-26 36.5t-63 15q-29 0 -52 -9.5t-32 -25.5q-94 9 -162 53
t-83 106q22 11 35 32t13 47v199q0 24 -12 44.5t-32 32.5q39 112 137 183t221 71q121 0 218.5 -70t137.5 -181q-23 -11 -37 -32.5t-14 -47.5v-199q0 -37 26 -63t62.5 -26t62.5 26t26 63v199q0 30 -18.5 54t-47.5 31z" />
    <glyph glyph-name="fanhuidingbu11" unicode="&#xe63d;" 
d="M512 831q-91 0 -174.5 -35t-143.5 -95t-96 -143t-36 -174t36 -174t96 -143t143.5 -95t174.5 -35t174.5 35t143.5 95t96 143t36 174t-36 174t-96 143t-143.5 95t-174.5 35zM512 -8q-106 0 -196.5 52.5t-143 143t-52.5 196.5t52.5 196.5t143 143t196.5 52.5t196.5 -52.5
t143 -143t52.5 -196.5t-52.5 -196.5t-143 -143t-196.5 -52.5zM322 263v0q9 -8 21 -7t20 10l148 173l150 -171q8 -9 20 -10t21 7t10 20t-7 21l-172 196q-6 7 -14 9h-1v0h-1v0l-1 1h-1v0h-1v0h-1h-1h-1h-1v0h-1h-1h-1v0h-1v0q-1 0 -1 -1h-1v0h-0.5h-0.5v0h-1v0q-8 -3 -13 -9
l-170 -198q-8 -9 -7 -21t10 -20z" />
    <glyph glyph-name="jiantou-copy" unicode="&#xe646;" 
d="M487 387l450 -452l24 24l-427 429l424 420l-23 24l-450 -443zM71 387l451 -452l23 24l-427 429l425 420l-24 24l-450 -443z" />
    <glyph glyph-name="guge" unicode="&#xe625;" 
d="M495 482q0 46 -25 90t-66 44q-32 0 -51 -24q-16 -20 -16 -54q0 -27 9 -55.5t31 -51t51 -22.5t49 20q18 18 18 53zM1024 384q0 139 -68.5 257t-186.5 186.5t-257 68.5t-257 -68.5t-186.5 -186.5t-68.5 -257t68.5 -257t186.5 -186.5t257 -68.5t257 68.5t186.5 186.5
t68.5 257zM670 482h39v-78h79v-40h-79v-78h-39v78h-79v40h79v78zM236 189q0 23 13.5 47.5t42.5 41.5q45 27 139 34q-21 28 -21 49q0 11 7 29q-17 -2 -24 -2q-55 0 -87.5 34.5t-32.5 79.5q0 58 46 98q49 40 131 40h149l-46 -26h-45v0q51 -43 51 -98q0 -26 -10 -46.5
t-20.5 -31t-30.5 -26.5q-20 -20 -20 -35q0 -16 19 -32l26 -20q21 -18 31.5 -28t20 -30t9.5 -44q0 -55 -51 -96.5t-140 -41.5q-75 0 -116 30.5t-41 73.5zM456 291h-17q-41 0 -76 -11q-63 -23 -63 -75q0 -39 35.5 -64t92.5 -25q51 0 79 22t28 57q0 26 -16.5 44.5t-62.5 51.5z
" />
    <glyph glyph-name="jia" unicode="&#xe66e;" horiz-adv-x="1028" 
d="M542 613h-55l1 -202h-203v-54h203v-202h54v202h202v54h-202v202zM513.5 896q-104.5 0 -199.5 -40.5t-164 -109t-109.5 -163.5t-40.5 -199t40.5 -199t109.5 -163.5t164 -109t199.5 -40.5t200 40.5t164 109t109.5 163.5t41 199t-41 199t-109.5 163.5t-164 109t-200 40.5z
M513.5 -93q-97.5 0 -186 37.5t-152.5 101.5t-102 152.5t-38 185.5t38 185.5t102 152.5t152.5 101.5t186 37.5t186.5 -37.5t153 -101.5t102 -152.5t38 -185.5t-38 -185.5t-102 -152.5t-153 -101.5t-186.5 -37.5z" />
    <glyph glyph-name="fankui" unicode="&#xe63e;" 
d="M767 -65h-579q-40 0 -68.5 28.5t-28.5 68.5v643q0 40 28.5 68t68.5 28h450q13 0 22.5 -9t9.5 -22.5t-9.5 -23t-22.5 -9.5h-450q-13 0 -22.5 -9.5t-9.5 -22.5v-643q0 -13 9.5 -22.5t22.5 -9.5h579q13 0 22.5 9.5t9.5 22.5v515q0 13 9.5 22.5t22.5 9.5t22.5 -9.5t9.5 -22.5
v-515q0 -40 -28 -68.5t-68 -28.5v0v0zM767 -65zM578 450q-13 0 -22.5 9.5t-9.5 23t9 22.5l320 320q9 9 22.5 9t23 -9.5t9.5 -22.5t-10 -23l-319 -320q-10 -9 -23 -9v0v0zM578 450zM445 450h-193q-13 0 -22.5 9.5t-9.5 23t9.5 22.5t22.5 9h193q14 0 23 -9t9 -22.5t-9 -23
t-23 -9.5v0v0zM445 450zM638 257h-386q-13 0 -22.5 9.5t-9.5 23t9.5 22.5t22.5 9h386q13 0 22.5 -9t9.5 -22.5t-9.5 -23t-22.5 -9.5v0v0zM638 257z" />
    <glyph glyph-name="zhuce-copy-copy" unicode="&#xe636;" 
d="M718 266q-36 27 -76 43q23 15 42 34q71 72 71 172.5t-71 172t-172 71.5t-172 -71.5t-71 -172t71 -172.5q19 -19 43 -34v0v0v0q-56 -23 -101 -63q-98 -88 -113 -217q-1 -11 5.5 -19t17.5 -9q1 -1 3 -1q9 0 16.5 6.5t8.5 16.5q13 110 96 185q84 75 196 75q98 0 175 -58
q9 -6 19.5 -4.5t16.5 10t4.5 19t-9.5 16.5zM376 379q-56 57 -56 136.5t56 136t136 56.5t136 -56.5t56 -136t-56 -136.5q-36 -35 -84 -49q-30 -8 -61 -7q-22 1 -43 7v0v0q-48 14 -84 49zM880 133h-66v65q0 11 -7 18.5t-18 7.5t-18.5 -7.5t-7.5 -18.5v-65h-65
q-11 0 -18.5 -7.5t-7.5 -18.5t7.5 -18t18.5 -7h65v-66q0 -11 7.5 -18.5t18.5 -7.5t18 7.5t7 18.5v66h66q11 0 18.5 7t7.5 18t-7.5 18.5t-18.5 7.5z" />
    <glyph glyph-name="diqiu-copy" unicode="&#xe634;" 
d="M505 461v0q-1 1 -1 2zM674 276v0v0v0zM678 275h-1q-2 0 -3 1q-1 -4 4 -1zM513.5 827q-89.5 0 -171.5 -35t-141 -94t-94 -141t-35 -171.5t35 -171t94 -141t141 -94t171.5 -34.5t171 34.5t141 94t94 141t34.5 171t-34.5 171.5t-94 141t-141 94t-171 35zM795 654
q-26 0 -38 -8q-13 -10 -14 -10q-3 -1 -9 -1t-9 -1q-8 -3 -13.5 -15.5t-11.5 -21.5t-17.5 -6.5t-27.5 27.5q-1 2 -4.5 6t-4.5 6t-2 6.5t2 7.5q-2 -1 -5 -0.5t-4 -0.5q2 6 10.5 9t9.5 5q1 3 1 5.5t-4 4t-6.5 2.5t-7 1.5t-5.5 0.5q3 6 9.5 2.5t9.5 -3.5q8 2 -4 11q-3 1 -4 2
q-1 0 -4 -1q-12 -2 -13 0t5 7q-33 21 -54 34q-1 -4 2.5 -8.5t8.5 -6.5t12.5 -5.5t8.5 -3.5q-1 -5 -6 -9t-9 -2q-3 1 -5.5 6t-7.5 5q-4 -8 5.5 -12t9.5 -8q1 -3 0 -5t-2.5 -2t-4.5 1t-4 1l-2 1.5t-3.5 2t-2.5 -2.5q0 -3 5.5 -5t6.5 -5q-13 -1 -31 11q-12 8 -35 8l15 6
q10 8 12 12q1 7 -4 10q-3 2 -4 3q-2 1 -7 5t-9 6.5t-7 2.5q-10 2 -14.5 -1.5t-4.5 -9.5t-3 -12.5t-10 -7.5h1h-1v0q-16 1 -18 -1q-1 -1 -2.5 -6t-2.5 -7q-3 -3 -9.5 -5.5t-8.5 -3.5q-16 -11 -21 -19q-1 -8 -1 -12t6.5 -8.5t11.5 -7t13.5 -5t11.5 -4.5q2 -1 9 -3t13 -4t7 -5
q2 -2 1 -9t5 -8q8 -4 13 1q4 1 0.5 5.5t-3.5 6.5q0 6 -0.5 7t2.5 2t5 2q8 6 8.5 9.5t-3.5 13.5q-8 25 -3 28q6 3 10.5 2.5t12.5 -3.5t10 -3q3 0 6 -3t5.5 -7t3.5 -5q9 -9 13 -8q4 0 5.5 4.5t2.5 5.5q9 4 12 1.5t7 -12.5q0 -2 1 -3q4 -10 16 -20q19 -17 18 -21q-1 -6 -24 -13
q-10 -3 -21 -1t-21.5 -2t-11.5 -16q1 0 9.5 5t13 6.5t9.5 -0.5q2 -2 0 -6.5t-1 -5.5q2 -7 8 -7t11 2q0 -1 -1 -1q8 4 9.5 5.5t5.5 8.5q1 1 2 4t2 5.5t3 3.5q6 6 12 -1q1 -2 2 -3q11 -14 9 -19q-24 5 -40 -5q-20 -13 -22 -14q-11 -3 -15 1q1 1 7 4.5t8 5.5q-2 2 -7 0.5
t-6.5 -2t-6.5 -4.5t-6 -4q-4 -2 -9 -8.5t-7 -8.5l-6 -3t-5.5 -4t-3 -6.5t-3.5 -5.5q-1 -1 -4 -2t-4 -3q-2 -2 -0.5 -6t1.5 -6q-1 -3 -9 -8.5t-9 -6.5l2 2q-1 -1 -6 -5.5t-7 -7.5q5 -28 5 -29q-4 -11 -15 10l-2 2q-5 9 -13.5 10.5t-23 -2t-16.5 -3.5q-17 -2 -28 -19t-1 -33
q9 -17 29 -13q5 1 12 9.5t12 8.5t7 -2t1 -5t-2.5 -6t-4 -7t-2.5 -5q0 -3 -0.5 -4t2 -2.5t3 -1.5t4.5 -1q2 0 8.5 0.5t7.5 -1.5q1 0 2 -3l1.5 -4.5t2.5 -0.5q-5 -5 -4.5 -13t6.5 -12q3 -4 13 -3t13 0q10 -1 10.5 -1t4 4t8.5 7q3 4 10 1.5t8 -2.5t5.5 2.5t9.5 1.5q2 0 6.5 -3
t8.5 -4q2 0 5 0.5t4 0.5q12 -1 35 -18q4 -3 7.5 -4t8.5 -2t8 -2q7 -2 14 -9t7 -13q0 -1 -3.5 -6.5t-4.5 -7.5q2 -1 5 -0.5t8 1t6 1.5q-6 -5 -10 -5q0 -1 8 -6q1 5 4 7t5 1t6 -3.5t6 -3.5q5 -1 14.5 -2.5t12.5 -2.5q21 -5 28 -12q8 -10 -3 -26q-2 -3 -9.5 -10t-9.5 -13
q-2 -5 -2 -14t-1 -13q-1 -6 -2 -8t-4.5 -4t-6 -4.5t-3.5 -5t-6 -4.5q-3 -1 -8.5 -2.5t-9 -4t-6.5 -7.5v2q-1 -2 -3 -7.5t-2 -6.5q-3 -5 -13 -16q-1 -1 -6.5 -8t-10.5 -13t-5 -5q-1 1 -9 0t-8 1q1 -2 4 -4q-3 -15 -10 -19.5t-23 -4.5q1 -4 -1 -6t-5.5 -3.5t-5 -3.5t-3 -8.5
t-2.5 -7.5q0 -1 -4.5 -7.5t-4.5 -7.5q0 -2 5 -7q-21 -5 -44 -6q5 6 -5 7q1 3 5 8t5 8q1 2 1 4v3q2 6 0 14q-2 5 -1.5 12t1.5 9t3 8.5t4 11.5q3 9 5 30.5t3 27.5q4 26 1 36q-2 4 -6.5 8.5t-11 8.5t-8.5 6q-7 7 -23 31q-9 14 -11 17q-5 7 -2 9t3 4q1 2 1 10t1 12q2 5 7.5 12
t7.5 12q5 16 -8 20q-2 1 -7 -0.5t-7 -0.5q-7 1 -18 9q-4 3 -8.5 9.5t-8.5 9.5q-4 2 -9.5 2.5t-7.5 1.5q-4 1 -9.5 6.5t-7.5 6.5q-3 2 -10.5 0.5t-11.5 -1.5q-4 1 -14.5 6.5t-11.5 6.5q-21 9 -28 28q-3 6 -21 28q-2 2 -5 7t-5 7t-5.5 4.5t-8.5 3.5q-1 0 1 -5t3 -7q2 -4 5 -8
t6.5 -9t5.5 -7q6 -9 4.5 -10.5t-7.5 7.5q-28 38 -30 40q0 1 -2 6t-5 8q-3 2 -9 5.5t-8 5.5q-23 21 -19 62q0 1 1 9t1 12q-2 8 -9 16q-1 1 -2.5 3t-2.5 3.5l-1 1.5q-9 15 -14 19q-8 8 -22 18q63 79 157 117q1 -4 4 -9q1 -2 2.5 -3.5t4 -2.5t3.5 -1t4.5 -1t5.5 -1
q-1 -13 -24 -10q-7 2 -16.5 1.5t-15.5 -6.5q15 -9 17 -7.5t1 5.5q19 1 31 -1q1 0 6.5 -1.5t8.5 -2t6 0.5q1 1 2.5 5.5t2.5 5.5q-1 0 -4 0.5t-5 0.5q3 3 6 4t4.5 0.5t6 -3t5.5 -3.5q-8 -5 -4 -11q3 -5 10 3q8 10 -12 21q8 10 13 10t12 -10q1 3 2.5 4t3 1t5 -0.5t5.5 -0.5v2
q-2 0 -5 1t-5 1q3 4 4.5 8.5t2.5 6t6 3.5q3 1 11.5 1.5t15.5 1.5t8 5q-4 -1 -16 -2.5t-20.5 -3.5t-15.5 -6q-1 -1 -6 -4.5t-7 -4t-7 1.5q-5 5 -0.5 11.5t10.5 10.5h-1q40 8 81 8q26 0 53 -3q-3 -2 -3.5 -5t-1.5 -4q-7 -5 -34 -15q3 0 16.5 -2.5t22 -1t11.5 9.5q-4 0 -13 2
q12 7 25 12q121 -24 207 -115h-1zM866 500q1 0 2 1l2 2q0 1 1 3.5t2 3.5t3.5 2.5t2.5 2.5l2 2q10 -27 16 -56q-1 0 -1 -0.5v-0.5q-2 -1 -8 -1q-5 0 -11.5 5.5t-9.5 10.5q-1 2 0 12q0 1 -1 6.5t0 6.5zM872 297q-15 13 -22 24q-3 4 -3.5 8.5t0.5 11.5t1 9t-1.5 15t1.5 14
q1 2 3.5 4.5l3.5 3.5q1 3 2.5 8t4.5 8q2 3 7.5 6.5t7.5 5.5q1 0 9 14q5 10 13 16q5 -30 5 -59q0 -51 -13 -101q-8 2 -19 12z" />
    <glyph glyph-name="jiantou" unicode="&#xe6b0;" 
d="M518 670l427 -328q9 -7 22.5 -7t23 7.5t9.5 17.5t-9 18l-468 359l-5 -4l-6 4l-467 -359q-10 -8 -10 -18t9.5 -17.5t23 -7.5t23.5 7zM518 349l427 -328q9 -8 22.5 -8t23 7.5t9.5 18t-9 17.5l-468 359l-5 -4l-6 4l-467 -359q-10 -7 -10 -17.5t9.5 -18t23 -7.5t23.5 8z" />
    <glyph glyph-name="sou22" unicode="&#xe61c;" 
d="M963 -43l-256 252q52 53 80 121.5t28 143.5q0 105 -51.5 193.5t-140.5 140t-193 51.5t-192.5 -51.5t-140.5 -140t-52 -193t52 -193t140.5 -140t192.5 -51.5q135 0 239 82l258 -254q7 -7 18.5 -7t19.5 7q8 9 7.5 20.5t-9.5 18.5zM103 476q0 89 43.5 164.5t119 119.5
t164.5 44t164.5 -44t119 -119.5t43.5 -164.5t-43.5 -164t-119 -119t-164.5 -44t-164.5 44t-119 119t-43.5 164z" />
    <glyph glyph-name="linkedin" unicode="&#xe768;" 
d="M273 539v-566h-189v566h189zM285 714q0 -42 -29.5 -70t-77.5 -28h-1q-47 0 -75.5 28t-28.5 70t29.5 69.5t77 27.5t76 -27.5t29.5 -69.5zM951 297v-324h-188v302q0 60 -23 94t-73 34q-36 0 -60 -19.5t-36 -48.5q-6 -17 -6 -46v-316h-188q1 228 1 369.5t-1 168.5v28h188
v-82h-2q12 18 24 31.5t32 29.5t49.5 25t65.5 9q98 0 157.5 -65t59.5 -190z" />
    <glyph glyph-name="rili" unicode="&#xe62b;" 
d="M378 780h265v-48h-265v48zM888 780h-140v-48h124q13 0 23 -9.5t10 -23.5v-93h-790v93q0 14 10 23.5t23 9.5h124v48h-140q-27 0 -45.5 -19t-18.5 -45v-714q0 -27 18.5 -45.5t45.5 -18.5h756q27 0 45.5 18.5t18.5 45.5v714q0 26 -18.5 45t-45.5 19zM905 559v-541
q0 -13 -10 -22.5t-23 -9.5h-724q-13 0 -23 9.5t-10 22.5v541h790zM301 831h47v-170h-47v170zM673 831h47v-170h-47v170zM358 348v-231h53v320h-34l-3 -4q-27 -39 -70 -68l-4 -3v-53l14 8q25 15 44 31zM618 169q-15 -9 -42 -5q-24 5 -35 47l-2 8l-49 -13l2 -8q9 -46 36 -65
q26 -19 55 -21q5 -1 10 -1q22 0 40 8q22 8 37 22q16 15 23 37q8 22 9 42.5t-4 38.5v0q-5 18 -15 36q-11 19 -35 29q-22 11 -47 12q-17 0 -36 -6q6 22 12 52h113v50h-154l-2 -8q-30 -140 -33 -150l-3 -10l45 -5l4 4q12 17 30 21q20 5 35 0q15 -4 25 -18q9 -13 10 -33
q1 -21 -6 -38q-7 -16 -23 -26z" />
    <glyph glyph-name="shaixuan" unicode="&#xe647;" 
d="M704 192zM576 192q0 53 37.5 90.5t90.5 37.5t90.5 -37.5t37.5 -90.5t-37.5 -90.5t-90.5 -37.5t-90.5 37.5t-37.5 90.5zM954 -6l-90 89v0q38 64 38 109q0 82 -55 137t-136.5 55t-137 -55t-55.5 -137t55.5 -137t136.5 -55q61 0 109 38v0l90 -89q9 -10 22 -10t22.5 9.5
t9.5 22.5t-9 23zM704 64q-53 0 -90.5 37.5t-37.5 90.5t37.5 90.5t90.5 37.5t90.5 -37.5t37.5 -90.5t-37.5 -90.5t-90.5 -37.5zM704 192zM576 192q0 53 37.5 90.5t90.5 37.5t90.5 -37.5t37.5 -90.5t-37.5 -90.5t-90.5 -37.5t-90.5 37.5t-37.5 90.5zM954 -6l-90 89v0
q38 64 38 109q0 82 -55 137t-136.5 55t-137 -55t-55.5 -137t55.5 -137t136.5 -55q61 0 109 38v0l90 -89q9 -10 22 -10t22.5 9.5t9.5 22.5t-9 23zM704 64q-53 0 -90.5 37.5t-37.5 90.5t37.5 90.5t90.5 37.5t90.5 -37.5t37.5 -90.5t-37.5 -90.5t-90.5 -37.5zM448 768
q0 29 -17.5 46.5t-46.5 17.5h-256q-29 0 -46.5 -17.5t-17.5 -46.5v-256q0 -29 17.5 -46.5t46.5 -17.5h256q29 0 46.5 17.5t17.5 46.5v256zM448 320q0 29 -17.5 46.5t-46.5 17.5h-256q-29 0 -46.5 -17.5t-17.5 -46.5v-256q0 -29 17.5 -46.5t46.5 -17.5h256q29 0 46.5 17.5
t17.5 46.5v256zM896 768q0 29 -17.5 46.5t-46.5 17.5h-256q-29 0 -46.5 -17.5t-17.5 -46.5v-256q0 -29 17.5 -46.5t46.5 -17.5h256q29 0 46.5 17.5t17.5 46.5v256z" />
    <glyph glyph-name="user" unicode="&#xe61d;" 
d="M592 356h-167q-74 0 -140 -48.5t-103.5 -122t-37.5 -150.5v-16q0 -20 8.5 -34t30.5 -22.5t41.5 -13.5t59 -7t65 -2.5t76.5 -0.5h167h56.5t50.5 1t49 3t41 6t36 9.5t25 14t18.5 20t5.5 26.5v16q0 77 -37.5 150.5t-103.5 122t-141 48.5v0zM509 390q92 0 157.5 64.5
t65.5 155t-65.5 155t-157.5 64.5t-157.5 -64.5t-65.5 -155t65.5 -155t157.5 -64.5v0z" />
    <glyph glyph-name="xinwen" unicode="&#xe641;" 
d="M903 813h-615q-27 0 -46 -19t-19 -46v-732q0 -10 4 -22h-48q-9 0 -15.5 6.5t-6.5 15.5v627q0 9 6.5 15t15.5 6v43q-27 0 -46 -18.5t-19 -45.5v-627q0 -27 19 -46t46 -19l724 1q26 0 45 18.5t19 45.5v732q0 27 -19 46t-45 19zM924 16q0 -9 -6 -15t-15 -6h-615
q-9 0 -15.5 6t-6.5 15v732q0 9 6.5 15.5t15.5 6.5h615q9 0 15 -6.5t6 -15.5v-732zM809 283h-427q-6 0 -10.5 -4.5t-4.5 -10.5v-9q0 -7 4.5 -11.5t10.5 -4.5h427q6 0 10 4.5t4 11.5v9q0 6 -4 10.5t-10 4.5zM809 173h-427q-6 0 -10.5 -4.5t-4.5 -11.5v-9q0 -6 4.5 -10.5
t10.5 -4.5h427q6 0 10 4.5t4 10.5v9q0 7 -4 11.5t-10 4.5zM411 347h175q18 0 31 13t13 31v177q0 18 -13 31t-31 13h-175q-18 0 -31 -13t-13 -31v-177q0 -18 13 -31t31 -13zM411 568h175v-177h-175v177zM679 562h125q8 0 13.5 5.5t5.5 13.5t-5.5 13.5t-13.5 5.5h-125
q-8 0 -13.5 -5.5t-5.5 -13.5t5.5 -13.5t13.5 -5.5zM679 455h125q8 0 13.5 5.5t5.5 13.5t-5.5 13.5t-13.5 5.5h-125q-8 0 -13.5 -5.5t-5.5 -13.5t5.5 -13.5t13.5 -5.5zM679 349h125q8 0 13.5 5.5t5.5 13.5t-5.5 13.5t-13.5 5.5h-125q-8 0 -13.5 -5.5t-5.5 -13.5t5.5 -13.5
t13.5 -5.5z" />
    <glyph glyph-name="tripple-up" unicode="&#xe62c;" 
d="M274 265l238 238l238 -238h-476z" />
    <glyph glyph-name="caret-right" unicode="&#xe62d;" 
d="M393 622l238 -238l-238 -238v476z" />
    <glyph glyph-name="caret-left" unicode="&#xe62e;" 
d="M631 146l-238 238l238 238v-476z" />
    <glyph glyph-name="deng" unicode="&#xe63f;" 
d="M225 713q-9 8 -21.5 8t-21.5 -8.5t-9 -21.5t9 -22l43 -43q9 -9 21.5 -9t21.5 9t9 22t-9 21l-43 44v0v0v0zM803 713l-43 -44q-9 -8 -9 -21t9 -22t21.5 -9t21.5 9l43 43q9 9 9 22t-9 21.5t-21.5 8.5t-21.5 -8v0v0v0zM149 472h-61q-13 0 -22 -9t-9 -21.5t9 -21.5t22 -9h61
q12 0 21 9t9 21.5t-9 21.5t-21 9v0v0v0zM940 472h-61q-12 0 -21 -9t-9 -21.5t9 -21.5t21 -9h61q13 0 22 9t9 21.5t-9 21.5t-22 9v0v0v0zM483 822v-61q0 -13 9 -22t22 -9t21.5 9t8.5 22v61q0 12 -8.5 21t-21.5 9t-22 -9t-9 -21v0v0v0zM301 396q0 88 62.5 150.5t150.5 62.5
t150.5 -62.5t62.5 -151t-62.5 -150.5t-150.5 -62t-150.5 62t-62.5 151v0v0v0zM240 396q0 -114 80.5 -194t194 -80t193.5 80t80 193.5t-80 194t-193.5 80.5t-194 -80.5t-80.5 -193.5v0v0v0zM453 -31q0 -12 9 -21t21 -9h61q13 0 22 9t9 21.5t-9 21.5t-22 9h-61q-12 0 -21 -9
t-9 -22v0v0v0zM392 61q0 -13 9 -21.5t22 -8.5h182q13 0 22 8.5t9 21.5t-9 21.5t-22 8.5h-182q-13 0 -22 -8.5t-9 -21.5v0v0v0zM392 61z" />
    <glyph glyph-name="facebook-official" unicode="&#xe626;" 
d="M896 823q20 0 34 -14.5t14 -34.5v-780q0 -20 -14 -34.5t-34 -14.5h-224v340h114l17 133h-131v84q0 32 13.5 48t52.5 16l70 1v118q-36 5 -102 5q-78 0 -124.5 -45.5t-46.5 -129.5v-97h-114v-133h114v-340h-420q-20 0 -34.5 14.5t-14.5 34.5v780q0 20 14.5 34.5t34.5 14.5
h781z" />
    <glyph glyph-name="pinterest" unicode="&#xe627;" 
d="M951 384q0 -119 -59 -220t-160 -160t-220 -59q-63 0 -125 18q34 54 45 94q5 20 31 121q11 -23 41.5 -39t65.5 -16q69 0 123 39t84 107.5t30 154.5q0 65 -34 122t-98.5 93t-145.5 36q-60 0 -112 -16.5t-88.5 -44t-62.5 -63t-38.5 -74t-12.5 -76.5q0 -59 23 -104.5
t67 -63.5q17 -7 22 12q1 4 4.5 17.5t4.5 16.5q3 14 -6 25q-29 35 -29 86q0 87 59.5 149t156.5 62q86 0 134 -47t48 -122q0 -97 -39 -165t-100 -68q-35 0 -56 25t-13 59q4 20 15 53.5t17.5 59t6.5 43.5q0 28 -15.5 47t-44.5 19q-35 0 -59.5 -32.5t-24.5 -81.5q0 -41 14 -69
l-57 -239q-9 -40 -7 -101q-118 52 -190.5 160.5t-72.5 241.5q0 119 59 220t160 160t220 59t220 -59t160 -160t59 -220z" />
    <glyph glyph-name="youtube" unicode="&#xe628;" 
d="M625 185v-120q0 -39 -22 -39q-13 0 -26 13v172q13 12 26 12q22 0 22 -38zM818 185v-27h-51v27q0 38 25.5 38t25.5 -38zM266 309h61v54h-178v-54h60v-325h57v325zM431 -16h51v282h-51v-216q-17 -24 -33 -24q-10 0 -12 12v20v208h-51v-223q0 -28 4 -42q7 -21 33 -21
q28 0 59 35v-31zM676 69v112q0 42 -5 57q-10 32 -41 32q-28 0 -53 -31v124h-51v-379h51v27q26 -31 53 -31q31 0 41 31q5 16 5 58zM869 74v8h-52q0 -29 -1 -35q-4 -21 -23 -21q-26 0 -26 40v49h102v59q0 45 -15 67q-23 29 -61 29q-39 0 -61 -29q-16 -22 -16 -67v-99
q0 -45 16 -66q23 -29 62 -29q41 0 62 30q10 16 12 31q1 5 1 33zM522 596v120q0 39 -25 39t-25 -39v-120q0 -40 25 -40t25 40zM932 167q0 -134 -14 -200q-8 -34 -33.5 -57t-58.5 -26q-105 -12 -317 -12t-317 12q-33 3 -58.5 26t-33.5 57q-14 64 -14 200q0 134 14 200
q8 34 33.5 56.5t58.5 26.5q105 12 317 12t317 -12q33 -4 58.5 -26.5t33.5 -56.5q14 -64 14 -200zM362 896h58l-69 -228v-155h-57v155q-8 42 -35 121q-21 59 -37 107h61l40 -150zM574 706v-100q0 -47 -16 -68q-22 -29 -61 -29q-38 0 -60 29q-16 22 -16 68v100q0 45 16 67
q22 29 60 29q39 0 61 -29q16 -22 16 -67zM765 798v-285h-52v32q-30 -36 -59 -36q-26 0 -34 21q-4 14 -4 43v225h52v-209v-20q2 -13 12 -13q16 0 33 25v217h52z" />
    <glyph glyph-name="daohangzhankaizujianicon" unicode="&#xe648;" 
d="M0 183v353l179 -176zM983 636q17 0 29 12t12 29t-12 29t-29 12h-657q-16 0 -28 -12t-12 -29t12 -29t28 -12h657zM983 350q17 0 29 12t12 29t-12 29t-29 12h-657q-17 0 -29 -12t-12 -29t12 -29t29 -12h657zM983 51q17 0 29 12t12 29t-12 29t-29 12h-657q-16 0 -28 -12
t-12 -29t12 -29t28 -12h657z" />
    <glyph glyph-name="instagram" unicode="&#xe629;" 
d="M512 804q139 0 207 -3q56 -3 95 -18q34 -12 59 -38q25 -25 38 -59q15 -39 18 -95q3 -68 3 -207t-3 -206q-3 -57 -18 -95q-12 -34 -38 -59q-25 -26 -59 -39q-39 -15 -95 -17q-68 -3 -207 -3t-207 3q-56 2 -95 17q-33 13 -58 39q-26 25 -39 58q-15 39 -17 95q-3 68 -3 207
q0 140 3 207q2 56 17 95q13 34 38 59q25 26 59 38q39 15 95 18q68 3 207 3v0zM512 896q-143 0 -211 -3q-71 -3 -124 -24q-52 -20 -91 -59q-16 -16 -33.5 -42.5t-25.5 -48.5q-21 -53 -24 -124q-3 -69 -3 -211.5t3 -210.5q3 -71 24 -124q20 -53 59 -91q16 -16 42.5 -33.5
t48.5 -25.5q53 -21 124 -24q68 -3 210.5 -3t211.5 3q71 3 124 24q52 20 91 59t59 91q20 53 23 124q3 68 3 210.5t-3 211.5q-3 71 -23 124q-8 22 -25 48.5t-34 42.5q-16 16 -42.5 33.5t-48.5 25.5q-53 21 -124 24q-67 3 -211 3v0zM512 647q-109 0 -186 -77t-77 -186t77 -186
t186 -77t186 77t77 186t-77 186t-186 77zM512 213q-71 0 -121 50t-50 121t50 121t121 50t121 -50t50 -121t-50 -121t-121 -50zM847 657.5q0 -25.5 -18 -43.5t-43.5 -18t-43.5 18t-18 43.5t18 43.5t43.5 18t43.5 -18t18 -43.5z" />
    <glyph glyph-name="caret-left1" unicode="&#xe62f;" 
d="M750 503l-238 -238l-238 238h476z" />
    <glyph glyph-name="baidu" unicode="&#xe61e;" 
d="M228 360q27 6 45.5 23t26 35t10 42.5t1.5 36t-2 24.5q-5 35 -37.5 70t-75.5 32q-22 -2 -39 -15.5t-26 -30.5t-15 -34t-7 -29l-2 -11q-4 -21 1.5 -47.5t19 -51t40 -38t60.5 -6.5zM331 160q-10 -28 -4 -47q5 -18 16.5 -28.5t20.5 -12.5l9 -1h50v123h-54q-16 -5 -26 -15.5
t-12 -18.5zM407 553q40 0 68 40t28 97t-28 97t-68 40t-68 -40t-28 -96.5t28 -97t68 -40.5zM636 544q49 -6 84 34t42 90q7 43 -20.5 85t-66.5 51q-35 8 -74.5 -35.5t-44.5 -86.5q-6 -54 12.5 -92.5t67.5 -45.5zM811 206q-13 9 -33 26t-66.5 63.5t-75.5 87.5q-30 48 -69 68.5
t-74 14.5t-64 -25t-45 -46q-18 -31 -44 -59t-47.5 -45.5t-22.5 -20.5q-2 -1 -13.5 -10t-24.5 -19.5t-29 -28.5t-26 -38t-15.5 -47t2.5 -57q6 -25 15.5 -45t21 -32t24 -21t23.5 -13t20 -6t14.5 -2.5t5.5 0.5q71 -7 154 11q42 9 76 7t55.5 -6.5t21.5 -5.5q4 -1 11 -3t28 -6
t41 -6t46.5 0t47.5 9t41 24t31 42q43 103 -16 174zM481 21h-125q-25 5 -44 18t-25.5 21.5t-9.5 14.5q-17 41 -9 87q6 21 17.5 37t23.5 24t23.5 13t18.5 6l7 1h66v82l57 -1v-303zM714 22h-144q-15 4 -27 11t-17.5 14t-9 14t-4 10.5t-0.5 4.5v159l58 1v-143q2 -7 7.5 -11.5
t10.5 -5.5l5 -1h59v160h62v-213zM919 448q0 12 -5.5 29t-16.5 36t-34 32t-52 13q-97 0 -97 -134q0 -20 1.5 -33.5t7.5 -32.5t17 -30.5t32.5 -19.5t51.5 -8q18 1 31.5 5t23 12t17 16t11.5 20.5t7 21.5t4 22.5t1 20v18v12.5z" />
    <glyph glyph-name="QQ" unicode="&#xe61f;" 
d="M199 431l-1 5l-2 6l-1 4v15l2 6l2 7l2 6l3 8l3 7l6 8v5v5l1 7l3 8l2 8l1 4l2 4l3 4l3 3v19l1 9l2 12l3 13l4 15l3 7l3 9l3 8l4 8l3 9l5 9l5 9l6 10l3 5l3 4l7 10l7 10l8 10l9 10l9 9l9 10l12 11l7 6l9 7l10 7l9 6l10 5l11 4l11 6l11 3l12 4l12 4l12 3l13 2l13 2l13 2
l12 2l14 1h40l14 -2l13 -2l14 -1l13 -3l13 -3l13 -3l14 -4l13 -5l12 -5l13 -5l12 -6l11 -7l11 -7l10 -7l5 -3l4 -3l9 -8l8 -7l8 -8l7 -8l6 -9l7 -8l5 -9l6 -8l5 -10l4 -8l8 -17l4 -9l3 -8l3 -10l2 -8l2 -7l2 -9l5 -15l2 -14l2 -12l1 -11l3 -16v-2l2 -3l5 -8l3 -6l3 -6l4 -6
l3 -7l2 -8l3 -8l1 -9l1 -4l1 -5v-5l-1 -4v-6l-1 -5l-3 -11l-2 -5l-2 -6v-1l1 -2l2 -5l12 -17l10 -13l4 -9l6 -10l5 -11l7 -11l6 -13l6 -14l4 -9l4 -8l3 -10l3 -8l2 -8l3 -8l2 -16l3 -16l1 -15v-20l-1 -7l-1 -12l-2 -11l-4 -10l-1 -4l-2 -5l-2 -4l-3 -4l-2 -3l-3 -3l-2 -3
l-3 -2l-3 -2l-3 -1l-3 -1h-3l-3 1l-4 2l-2 2l-2 1l-3 2l-2 3l-4 4l-5 6l-3 7l-4 5l-4 6l-5 10l-5 11l-1 1h-1l-2 -2l-2 -3l-2 -4l-4 -10l-6 -15l-7 -19l-6 -9l-6 -9l-7 -11l-7 -10l-4 -5l-4 -5l-11 -11l1 -1l1 -1l6 -3l22 -11l9 -5l9 -6l10 -6l8 -7l4 -3l3 -4l3 -4l2 -4
l1 -4l2 -5l1 -3l1 -5l-1 -3v-3l-1 -3l-2 -3v-2l-2 -3l-4 -5l-3 -5l-3 -3l-3 -3l-6 -4l-7 -4l-7 -4l-8 -3l-9 -4l-4 -1l-5 -1l-10 -3l-10 -2l-11 -2l-11 -2h-12l-12 -2h-38l-14 1l-13 1l-13 2l-14 1l-14 2l-14 4l-13 2l-14 4l-14 5l-13 4l-7 3l-7 2l-4 1l-4 1h-11l-13 1l-6 1
l-9 1l-5 -5l-8 -5l-10 -5l-11 -6l-7 -3l-7 -3l-15 -6l-9 -2l-9 -2l-12 -3h-7l-9 -1l-8 -1h-10h-40h-23l-22 2l-12 2l-11 1l-10 2l-11 2l-9 3l-10 2l-9 4l-8 3l-8 4l-7 4l-7 5l-2 2l-3 3l-2 3l-2 3l-2 3l-2 3l-2 6l-1 3v3v4v3v4l1 4v7l1 4l1 5l2 4l2 6l2 2l2 2l4 5l4 3l3 2
l3 2l4 2l4 2l5 2l5 2l5 1l6 2l6 1h7l7 1l2 1h1h1v1l-2 2l-4 2l-10 9l-6 5l-8 7l-8 7l-8 10l-9 11l-3 6l-5 6l-4 7l-4 7l-4 8l-3 8l-4 8l-4 9l-3 9l-2 11l-1 1h-1v1h-1l-2 -1v-1l-2 -2v-2l-1 -2l-1 -3l-5 -8l-2 -5l-4 -4l-4 -5l-4 -6l-5 -5l-5 -5l-5 -5l-6 -3l-6 -4l-6 -2
l-6 -2l-7 -1h-2l-1 1l-2 3l-2 1l-2 6l-2 4l-2 5l-1 5l-1 5l-2 11l-1 7v22l1 17l1 8l2 9l1 9l3 9l3 10l3 10l4 10l4 10l5 9l4 11l6 10l7 11l7 9l7 11l6 7l8 9l8 9l4 4l5 4l7 6l7 6l11 10l8 6z" />
    <glyph glyph-name="taobao" unicode="&#xe620;" 
d="M219.5 581q33.5 0 57 21t23.5 50.5t-23.5 51t-57 21.5t-57 -21.5t-23.5 -51t23.5 -50.5t57 -21zM153 552l-50 -78l93 -58q1 -1 3 -2t8 -5.5t11 -9.5t10 -13t7 -17t0.5 -20.5t-7.5 -23.5q-28 -56 -163 -180l121 -76q26 57 47.5 101t27.5 57t11.5 27t13.5 39q18 48 17 88.5
t-27 66.5q-36 35 -53 50t-70 54zM942 572q-1 4 -3 11.5t-13.5 26t-29.5 33.5t-54.5 29.5t-84.5 18.5t-123.5 -5.5t-167.5 -35.5l28 56l-112 31l-5.5 -16.5t-15.5 -39.5t-25.5 -55t-35.5 -56t-44 -50q5 -3 13 -7.5t25 -14t28 -16t11 -5.5q31 30 60 67q25 11 52 22
q-47 -86 -88 -129l48 -41q32 31 67 68h40v-69h-156v-55h156v-132h-6q-43 2 -54 20q-6 9 -7 22.5t1.5 33.5t2.5 25h-108l-4 -2q-1 -4 -2 -10.5t-2 -25t0.5 -35t8.5 -36.5t19 -34.5t35.5 -24t54.5 -8.5q168 -4 266 71l16 -59l89 37l-60 147l-72 -22l13 -51q-26 -19 -63 -32
v116h153v55h-153v69h154v55h-273q34 41 39 60l-47 13q318 113 316 -59v-315q0 -3 0.5 -6.5t-1 -15t-4.5 -21.5t-11 -21.5t-19.5 -20t-31.5 -13.5t-45 -3l-67 15l-16 -64q6 -2 16.5 -4.5t41 -6.5t59 -4.5t63.5 7t61.5 23t47 47.5t25.5 78q3 35 5.5 70.5t3 65t0 57.5
t-1.5 50.5t-3 42t-3.5 34t-3 24.5t-2.5 15z" />
    <glyph glyph-name="tengxunweibo" unicode="&#xe621;" 
d="M319.5 703q-93.5 0 -159.5 -66t-66 -159q0 -55 25 -103q4 -8 11.5 -10.5t15 1.5t10.5 12t-1 15q-21 40 -21 85q0 76 54.5 130.5t131.5 54.5t131 -54.5t54 -131t-54 -131t-131 -54.5q-22 0 -42 5q-8 2 -15 -2.5t-9 -12.5t2.5 -15t12.5 -9q25 -6 51 -6q93 0 159.5 66
t66.5 159.5t-66.5 159.5t-160 66zM280 421q20 -14 43 -14q31 0 53 22t22 53t-22 52.5t-53 21.5t-53 -21.5t-22 -52.5q0 -16 7 -30q-28 -30 -51 -64q-44 -64 -70.5 -157.5t-15.5 -208.5q0 -9 6 -17t13 -8h2q8 0 13.5 9.5t5.5 18.5q-18 192 78 336q27 41 44 60zM739 537
q-25 -1 -48 10q-40 19 -54.5 60t4.5 81q18 39 59.5 53.5t80.5 -4.5q39 -18 53.5 -59t-3.5 -81q-6 -11 -13 -20t2 -16t16 2q8 10 15 25q23 47 5.5 97t-65.5 73t-98 5t-73 -65.5t-5 -97.5t66 -73q27 -13 58 -12q5 0 8.5 3.5t3 8t-3.5 8t-8 2.5zM925 451q-102 37 -152 121
q-10 17 -18 37q12 6 18 18q7 16 1 32.5t-21.5 24t-32 1.5t-24.5 -21.5t-2 -32t22 -24.5q9 -4 17 -4q8 -22 20 -42q54 -91 164 -132q10 -3 14 6v0.5v0.5q4 11 -6 15z" />
    <glyph glyph-name="weixin" unicode="&#xe622;" 
d="M669 527q13 0 30 -2q-20 95 -110.5 157.5t-206.5 62.5q-129 0 -221 -77.5t-92 -189.5q0 -124 125 -212l-31 -94l110 55q79 -16 109 -16q14 0 30 1q-10 34 -10 66q0 103 77.5 176t189.5 73zM500 612q18 0 28.5 -11t10.5 -28.5t-10.5 -28.5t-28.5 -11t-32.5 11.5
t-14.5 28.5t14.5 28t32.5 11zM281 533q-19 0 -33.5 11.5t-14.5 28.5t14.5 28t33.5 11q17 0 28 -11t11 -28.5t-11 -28.5t-28 -11zM955 282q0 93 -79.5 160.5t-186.5 67.5q-112 0 -189.5 -67t-77.5 -161.5t77.5 -161t189.5 -66.5q31 0 94 16l86 -47l-24 78q110 83 110 181z
M602 321q-12 0 -21.5 10t-9.5 21.5t10 21.5t21 10q17 0 28.5 -9.5t11.5 -22t-11.5 -22t-28.5 -9.5zM775 321q-12 0 -21.5 10t-9.5 21.5t9.5 21.5t21.5 10q17 0 28 -9.5t11 -22t-11 -22t-28 -9.5z" />
    <glyph glyph-name="xinlangweibo" unicode="&#xe623;" 
d="M727 368q-16 3 -20 9.5t-1 11.5l3 5l3 6t6 16t4.5 23t-4 25.5t-16.5 26.5q-14 14 -37 18.5t-45.5 1t-43.5 -9.5t-34 -11l-13 -6q-10 -3 -16.5 -4t-10.5 0.5t-5.5 3t-1.5 7t0.5 9.5t2.5 12.5t3 14.5q0 15 -2 28t-10.5 27.5t-23 22t-41 7t-62.5 -12.5q-35 -12 -71.5 -36.5
t-64 -50.5t-50 -50t-34.5 -40l-12 -15q-20 -28 -34.5 -57t-20 -48.5t-8 -38t-2.5 -24t1 -9.5v0q5 -48 29 -87t57.5 -63t78.5 -40.5t86 -24.5t88 -11q75 -6 156 11.5t151 61.5t99 105q17 37 17.5 68.5t-10.5 51t-29 35t-33.5 22.5t-28.5 9zM415 51q-109 -5 -186.5 43
t-77.5 121t77 125.5t187 57.5q112 5 188.5 -37t76.5 -114q0 -74 -78 -132.5t-187 -63.5zM386 334q-30 -4 -53 -14.5t-36.5 -23.5t-23 -30.5t-12.5 -31t-4.5 -28t-1 -19.5t0.5 -8v0v-5t2 -12t6 -16.5t12 -17t20 -15.5q66 -32 124.5 -19.5t94.5 58.5q14 18 18.5 43t-2 51
t-23 48t-48.5 33.5t-74 6.5zM349.5 140.5q-20.5 -2.5 -35 8t-14.5 27.5q0 18 13.5 33t33.5 17q23 2 37.5 -9.5t14.5 -28.5q0 -18 -14.5 -31.5t-35 -16zM436 214.5q-7 -5.5 -14.5 -5t-11.5 7.5q-4 6 -2 14.5t8 13.5q9 6 16.5 5t11 -7.5t1.5 -14.5t-9 -13.5zM799 428q8 0 15 6
t8 14v3q4 33 -1.5 58t-16.5 39t-26 23t-30.5 11.5t-28 3.5t-21.5 0l-8 -1q-10 0 -17 -7.5t-7 -17.5t7 -17t17 -7q32 6 50.5 0.5t26 -19.5t9 -28.5t0.5 -25.5l-2 -11q0 -10 7 -17t18 -7zM781 710q-51 12 -120 -1q-1 0 -2 -1t-2 -1h-1q-11 -3 -18 -12.5t-7 -21.5q0 -15 10 -25
t25 -10q19 2 32 7q5 0 17.5 1.5t33.5 -3.5t42 -13t43 -26.5t38 -44.5q27 -60 10 -116q-7 -17 -7 -34q0 -14 10 -23t25 -9t23 5.5t11 24.5v0q19 57 14.5 103t-20 80t-43.5 59t-56 39.5t-58 21.5z" />
    <glyph glyph-name="zhuce" unicode="&#xe6e0;" 
d="M332 -63h-238q-13 0 -21.5 8.5t-8.5 20.5v238q0 12 9 21l596 598q9 9 21 9v0q13 0 22 -9l239 -240q8 -9 8 -21t-8 -21l-119 -120q-9 -8 -21.5 -8t-21.5 8l-119 120q-8 9 -8 21t8.5 21t21 9t20.5 -9l98 -98l77 77l-197 198l-566 -569v-195h196l348 350q9 9 21.5 9t21 -9
t8.5 -21t-8 -21l-358 -359q-9 -8 -21 -8z" />
    <glyph glyph-name="facebook-f" unicode="&#xe680;" 
d="M736 790v-132h-78q-44 0 -59 -18t-15 -54v-95h147l-19 -149h-128v-381h-153v381h-128v149h128v109q0 94 52 145t139 51q74 0 114 -6z" />
    <glyph glyph-name="shipin" unicode="&#xe63c;" 
d="M512 864q-98 0 -187 -38t-153 -102t-102 -153t-38 -187t38 -187t102.5 -153t153 -102t186.5 -38t186.5 38t153 102.5t102.5 153t38 186.5v1q0 97 -38 186t-102 153t-153 102t-186 38h-1v0zM512 -25q-111 0 -205 55t-149 149t-55 205t55 205t149 148.5t205 54.5t205 -54.5
t149 -148.5t55 -205t-55 -205t-149 -149t-205 -55zM696 417l-248 143q-19 11 -38.5 0t-19.5 -33v-287q0 -22 19 -33t39 0l248 143q18 11 18 33.5t-18 33.5z" />
    <glyph glyph-name="zhongguo" unicode="&#xe642;" 
d="M68 641h890v-595h-890v595zM215 573l19 -58h61l-49 -36l19 -58l-50 36l-49 -36l19 58l-49 36h61zM374 603l-1 -20l19 -7l-20 -5l-1 -20l-11 17l-19 -5l13 15l-11 17l18 -7zM443 538l-9 -18l14 -14l-20 4l-9 -18l-3 20l-20 3l18 9l-3 19l14 -14zM422 457l6 -19h20l-16 -12
l6 -19l-16 12l-16 -12l6 19l-16 12h20zM374 396l-1 -20l18 -8l-19 -4l-1 -20l-11 16l-19 -4l12 15l-10 17l18 -8z" />
    <glyph glyph-name="yingguo" unicode="&#xe640;" 
d="M68 641h890v-595h-890v595zM958 432h-356v209h-178v-209h-356v-178h356v-208h178v208h356v178zM958 114l-788 527h-102v-69l787 -526h103v68zM68 114l788 527h102v-69l-787 -526h-103v68zM958 395h-393v246h-104v-246h-393v-104h393v-245h104v245h393v104zM958 47v47
l-239 160h-71zM958 641h-70l-286 -191v-18h44zM378 254l-310 -207v-1h68l288 192v16h-46zM68 640v-47l241 -161h71z" />
    <glyph glyph-name="zhongguo1" unicode="&#xe643;" 
d="M67 384q0 -184 130.5 -314.5t314.5 -130.5t314.5 130.5t130.5 314.5t-130.5 314.5t-314.5 130.5t-314.5 -130.5t-130.5 -314.5zM412 538l30 -89h98l-80 -58l30 -89l-78 53l-79 -53l30 89l-79 58h98zM726 360l10 -29h32l-26 -19l9 -28l-25 17l-25 -17l9 28l-25 19h31z
M705 492l21 -21l29 14l-15 -29l21 -21l-30 4l-15 -27l-4 30l-32 6l29 14zM601 568l29 -10l20 24l-2 -32l29 -10l-29 -9l-3 -31l-16 26l-31 -8l20 24zM601 253l29 -10l20 25l-2 -32l29 -11l-29 -9l-3 -30l-16 25l-31 -8l20 25z" />
    <glyph glyph-name="yingguo1" unicode="&#xe644;" 
d="M75 297q7 -32 18 -63h37l-30 -19q16 -39 40 -75l143 94h103l-212 -139q9 -11 19 -21l197 128v-246q26 -7 53 -12v353h-368zM581 -56q27 4 53 12v244l196 -128q30 31 54 67l-146 95h104l70 -46q6 13 11 24l-33 22h41q11 31 17 64h-367v-354zM443 824q-27 -4 -53 -12v-251
l-200 130q-29 -30 -51 -64l142 -93h-104l-66 43q-7 -14 -12 -28l23 -15h-29q-11 -31 -18 -63h368v353zM949 471q-7 32 -18 63h-33l26 18q-15 38 -38 74l-141 -92h-104l211 137q-10 12 -19 22l-199 -130v249q-26 7 -53 12v-353h368zM93 234q3 -8 7 -19l30 19h-37zM99 549
q-3 -7 -6 -15h29zM833 693q-84 86 -199 119v-249zM390 812q-116 -33 -200 -121l200 -131v252zM193 74q83 -86 197 -118v246zM931 534q-3 9 -7 18l-26 -18h33zM634 -44q113 32 196 116l-196 128v-244zM923 212l8 22h-41zM581 -56v353h368q8 43 8 87t-8 86h-368v354
q-33 5 -66 5h-6q-33 0 -66 -5v-354h-368q-8 -42 -8 -86t8 -87h368v-353q33 -5 66 -5h6q33 0 66 5zM738 234l146 -95q15 23 28 49l-70 46h-104zM745 534l141 92q-16 24 -34 45l-211 -137h104zM281 534l-142 93q-15 -24 -28 -50l66 -43h104zM283 234l-143 -94q15 -23 34 -45
l212 139h-103v0z" />
    <glyph glyph-name="texiao" unicode="&#xe64f;" horiz-adv-x="1071" 
d="M1057 358h-107v0q-6 0 -10.5 4.5t-4.5 10.5v0v0q0 6 4.5 10.5t10.5 4.5h107q6 0 10 -4.5t4 -10.5v0v0q0 -6 -4 -10.5t-10 -4.5v0zM882 -3q-8 0 -14 6l-130 130q-6 6 -6 14t6 14t14 6t14 -6l130 -130q6 -6 6 -14t-6 -14t-14 -6zM882 -3zM832 277q-52 -30 -134 -75
q-53 -99 -75 -137q-22 -37 -57 -37q-28 1 -48 21q-24 22 -112 104q-114 20 -154 28q-13 2 -26 12t-20 21q-7 14 -7 30q0 17 8 32q14 29 66 139q-15 119 -18 153q-1 4 -1 7q0 27 18 47q9 9 23.5 15.5t26.5 6.5h7q32 -4 154 -18q98 48 138 67q14 7 30 7q24 0 43.5 -16.5
t24.5 -40.5q14 -71 27 -148q78 -83 103 -110q9 -8 15.5 -22.5t6.5 -26.5q0 -5 -1 -9q-3 -14 -14 -29t-24 -21zM820 359q-43 47 -107 113l-4 4l-1 6q-18 103 -29 154q-1 10 -9 17.5t-19 7.5q-7 0 -14 -4q-71 -33 -143 -68l-5 -3l-6 1q-4 1 -36.5 4.5t-66 7.5t-56.5 6h-2v0
q-12 0 -20 -9t-8 -20v-4q7 -59 19 -157l1 -6l-3 -5q-61 -131 -68 -145q-4 -7 -4 -15q0 -6 3 -12q6 -11 18 -12q28 -6 159 -29l6 -1l4 -4q70 -66 116 -108q26 -24 43 7q11 19 78 142l3 5l5 3q82 45 138 77q14 6 19 22q2 11 -11 25zM566 28zM777 692q-5 -5 -11 -5t-10 4t-4 10
q0 5 3 9l66 82q4 5 11 5q5 0 9 -3q5 -4 5 -11q0 -5 -3 -9zM516 762q-6 0 -10 4t-4 10v106v0q0 6 4 10t10 4t10 -4t4 -10v0v-106q0 -6 -4 -10t-10 -4zM217 652l-82 67q-6 4 -6 11q0 5 4 9q4 5 10 5q5 0 9 -3l82 -67q5 -4 5 -10t-4 -10t-10 -4q-5 0 -8 2zM119 391h-105
q-6 0 -10 4t-4 10t4 10t10 4h105q6 0 10 -4t4 -10t-4 -10t-10 -4zM288 85q4 5 11 5q5 0 9 -3v0q6 -5 6 -11q0 -5 -4 -9l-68 -85q-4 -5 -10 -5q-5 0 -9 3l-1 1q-5 4 -5 10q0 5 3 9zM545 9v0q6 0 10 -4t4 -10v0v-109v0q0 -6 -4 -10t-10 -4v0v0v0q-6 0 -10.5 4t-4.5 10v0v109v0
q0 6 4.5 10t10.5 4z" />
    <glyph glyph-name="anli" unicode="&#xe6a4;" 
d="M98 503l376 -168q25 -11 41 -11t43 11l376 168q20 9 21 38q1 31 -21 43l-376 197q-22 13 -40 13t-44 -13l-377 -197q-22 -14 -21 -44q1 -26 22 -37zM129 543l387 206l387 -206l-387 -161zM901 191l-385 -175l-386 176q-3 1 -20 9q-15 7 -30 15l-7 4v-8q3 -49 25 -61
l376 -167q25 -12 41 -12t43 12l376 167q21 10 25 62v7l-24 -12zM98 327l376 -168q25 -11 41 -11t43 11l376 168q21 10 25 61v8l-22 -11l-36 -18l-385 -176l-386 176q-3 2 -20 10q-15 7 -30 15l-7 4v-8q3 -49 25 -61z" />
    <glyph glyph-name="unie607-copy" unicode="&#xe769;" 
d="M545 -65l288 288q7 7 7 17t-7 17t-17 7t-17 -8l-247 -246v782q0 6 -3.5 12t-9 9t-11.5 3t-11.5 -3t-9 -9t-3.5 -12v-782l-247 247q-7 7 -17 7t-17 -7t-7 -17q1 -10 7 -17l288 -288q3 -4 8 -5.5t9 -1.5t9 1.5t8 5.5z" />
  </font>
</defs>
</svg>
